solid Created by Gmsh
facet normal -0.0657551 0.220914 0.973074
  outer loop
    vertex 7.349414540155134 121.3773703068509 41.00555912190531
    vertex -12.31603008985272 109.7653597121364 42.31291203254118
    vertex 3.06161699786838e-15 106 44
  endloop
endfacet
facet normal -0.721922 -0.260157 0.641207
  outer loop
    vertex -37.18740481740814 84.75440550551261 19.80158207401276
    vertex -28.2026543489408 89.38254623566161 31.79511235681468
    vertex -35.0192223111204 102.7371179266935 29.53881918831888
  endloop
endfacet
facet normal -0.763434 -0.233939 0.602031
  outer loop
    vertex -35.0192223111204 102.7371179266935 29.53881918831888
    vertex -44.07419338134819 97.94903321626269 16.1956620002802
    vertex -37.18740481740814 84.75440550551261 19.80158207401276
  endloop
endfacet
facet normal -0.899122 -0.307628 0.31136
  outer loop
    vertex -48.21085681336853 94.88485067798732 1.222654696871385
    vertex -42.14925023606931 81.85657860663319 5.854784180217234
    vertex -44.07419338134819 97.94903321626269 16.1956620002802
  endloop
endfacet
facet normal 0.0266225 -0.422897 -0.905787
  outer loop
    vertex 9.973258363961977 79.96468277042635 -47.50537765592704
    vertex -4.364348088050371 93.34932014931135 -54.1758525101706
    vertex 9.151836486108168 91.82623164445404 -53.06748537509586
  endloop
endfacet
facet normal -0.859239 -0.345321 0.377441
  outer loop
    vertex -44.07419338134819 97.94903321626269 16.1956620002802
    vertex -42.14925023606931 81.85657860663319 5.854784180217234
    vertex -37.18740481740814 84.75440550551261 19.80158207401276
  endloop
endfacet
facet normal -0.731459 0.413378 -0.542296
  outer loop
    vertex -41.55625213028632 118.4924776104555 -30.83980499191455
    vertex -34.82429852493414 134.6390467942924 -27.61187708091552
    vertex -29.44371593148213 128.3009487621414 -39.70067175079054
  endloop
endfacet
facet normal 0.0167206 -0.431577 -0.901921
  outer loop
    vertex 9.973258363961977 79.96468277042635 -47.50537765592704
    vertex -8.869048505598515 80.71401392806389 -48.21325487302767
    vertex -4.364348088050371 93.34932014931135 -54.1758525101706
  endloop
endfacet
facet normal 0.225694 -0.965532 0.129651
  outer loop
    vertex 15.35405656292697 60.6662843823394 8.460538557035649
    vertex 2.187826338655493 56.25063034130532 -1.504042429644785
    vertex 13.98623457707167 58.06337715187808 -8.542721430286845
  endloop
endfacet
facet normal 0.738295 0.65548 0.158953
  outer loop
    vertex 35.43146763665564 141.2744884412314 -6.567068181137317
    vertex 31.25766398383384 142.4702910558281 7.887991668233527
    vertex 41.12068172363085 131.8517260482226 5.864981875734097
  endloop
endfacet
facet normal -0.0671072 0.33668 0.939225
  outer loop
    vertex -1.741716492175751 132.4819327926604 36.37538978258375
    vertex -13.89453227310433 123.5683079285323 38.70231011301241
    vertex 7.349414540155134 121.3773703068509 41.00555912190531
  endloop
endfacet
facet normal -0.748783 0.124571 0.651003
  outer loop
    vertex -35.0192223111204 102.7371179266935 29.53881918831888
    vertex -33.68164548591847 121.712931941883 27.44623337762655
    vertex -42.98212400303071 114.2434876076109 18.17812913050255
  endloop
endfacet
facet normal -0.79064 0.41891 -0.446546
  outer loop
    vertex -41.55625213028632 118.4924776104555 -30.83980499191455
    vertex -43.40089732002988 126.3874413179822 -20.16736913904824
    vertex -34.82429852493414 134.6390467942924 -27.61187708091552
  endloop
endfacet
facet normal 0.170251 -0.96439 0.202402
  outer loop
    vertex 15.35405656292697 60.6662843823394 8.460538557035649
    vertex 2.749280773184526 58.85104811349686 10.4139511158773
    vertex 2.187826338655493 56.25063034130532 -1.504042429644785
  endloop
endfacet
facet normal 0.79441 0.600441 0.0915572
  outer loop
    vertex 41.12068172363085 131.8517260482226 5.864981875734097
    vertex 43.47434161351838 130.6819340401686 -6.885298428706234
    vertex 35.43146763665564 141.2744884412314 -6.567068181137317
  endloop
endfacet
facet normal 0.0982827 0.995158 -0.000459758
  outer loop
    vertex -3.769784999574042 155.7610828013401 -2.897845991063301
    vertex 13.63728902777746 154.0416466998106 -3.54550812927823
    vertex 7.055055635883525 154.6864510240878 -14.93620034766922
  endloop
endfacet
facet normal 0.100963 0.99158 0.081087
  outer loop
    vertex 6.432449888989495 153.9405067821834 6.662203516492202
    vertex 13.63728902777746 154.0416466998106 -3.54550812927823
    vertex -3.769784999574042 155.7610828013401 -2.897845991063301
  endloop
endfacet
facet normal 0.00927877 -0.553443 -0.832836
  outer loop
    vertex -2.747269984976803 71.28482061274278 -41.87908621662759
    vertex -8.869048505598515 80.71401392806389 -48.21325487302767
    vertex 9.973258363961977 79.96468277042635 -47.50537765592704
  endloop
endfacet
facet normal 0.528086 -0.651832 0.544279
  outer loop
    vertex 17.37585047781695 69.60052284820748 23.54924505378576
    vertex 29.52919196034265 70.0184547243811 12.25801801258346
    vertex 27.17315829097638 81.03997012805905 27.74339012733245
  endloop
endfacet
facet normal 0.32212 -0.939331 0.117883
  outer loop
    vertex 13.98623457707167 58.06337715187808 -8.542721430286845
    vertex 24.08707708420834 62.44352160706972 -1.241228357485138
    vertex 15.35405656292697 60.6662843823394 8.460538557035649
  endloop
endfacet
facet normal -0.973235 0.223262 0.054484
  outer loop
    vertex -46.61611702021086 120.168077074518 5.234020917219475
    vertex -46.44256605450417 124.3248775531273 -8.699429742724941
    vertex -49.88391513282991 107.9905232236325 -3.237242624332896
  endloop
endfacet
facet normal -0.716486 0.329143 -0.615072
  outer loop
    vertex -29.44371593148213 128.3009487621414 -39.70067175079054
    vertex -34.43480279190329 114.6026019740923 -41.2170355929921
    vertex -41.55625213028632 118.4924776104555 -30.83980499191455
  endloop
endfacet
facet normal -0.402708 0.879006 -0.255291
  outer loop
    vertex -27.62308395048066 145.0936027144665 -20.44491121011676
    vertex -18.46930387388818 152.2784590800977 -10.14596666480793
    vertex -14.53547280397844 149.5051446392685 -25.90031206491818
  endloop
endfacet
facet normal -0.98048 0.1911 -0.0462594
  outer loop
    vertex -49.88391513282991 107.9905232236325 -3.237242624332896
    vertex -46.44256605450417 124.3248775531273 -8.699429742724941
    vertex -48.32607517732975 112.6602979468278 -16.96498468829556
  endloop
endfacet
facet normal -0.291352 0.927062 -0.235945
  outer loop
    vertex -18.46930387388818 152.2784590800977 -10.14596666480793
    vertex -6.390632891896574 154.5096052789331 -16.29456200734722
    vertex -14.53547280397844 149.5051446392685 -25.90031206491818
  endloop
endfacet
facet normal 0.153674 0.849757 -0.504279
  outer loop
    vertex 15.25496302851333 149.1461619021007 -26.1418672450298
    vertex 8.152704162560106 143.065358903588 -38.5529197490176
    vertex -0.2023517330028909 151.1629352159725 -27.45386530334383
  endloop
endfacet
facet normal -0.6763 0.127674 0.725477
  outer loop
    vertex -26.03149864386602 113.8093381623108 35.96874212817294
    vertex -33.68164548591847 121.712931941883 27.44623337762655
    vertex -35.0192223111204 102.7371179266935 29.53881918831888
  endloop
endfacet
facet normal -0.825139 -0.0134113 0.564771
  outer loop
    vertex -42.98212400303071 114.2434876076109 18.17812913050255
    vertex -44.07419338134819 97.94903321626269 16.1956620002802
    vertex -35.0192223111204 102.7371179266935 29.53881918831888
  endloop
endfacet
facet normal 0.00461686 0.809494 -0.58711
  outer loop
    vertex -0.2023517330028909 151.1629352159725 -27.45386530334383
    vertex 8.152704162560106 143.065358903588 -38.5529197490176
    vertex -7.360572632355838 142.8063647974895 -39.03200691629169
  endloop
endfacet
facet normal 0.650649 0.748866 0.12592
  outer loop
    vertex 35.43146763665564 141.2744884412314 -6.567068181137317
    vertex 26.57759136754393 148.1051676107397 -1.440778841581565
    vertex 31.25766398383384 142.4702910558281 7.887991668233527
  endloop
endfacet
facet normal 0.600198 -0.605685 0.522406
  outer loop
    vertex 29.52919196034265 70.0184547243811 12.25801801258346
    vertex 36.92690254333266 82.14853376300015 17.82249833456742
    vertex 27.17315829097638 81.03997012805905 27.74339012733245
  endloop
endfacet
facet normal 0.575297 0.15946 -0.80225
  outer loop
    vertex 23.42651593769015 119.6247212498543 -48.01863065218711
    vertex 33.20949387875795 118.4958484818712 -41.22759269429086
    vertex 29.38926261462369 106 -46.45084971874735
  endloop
endfacet
facet normal 0.775217 -0.343464 -0.530162
  outer loop
    vertex 34.37770515224485 92.43879798556354 -39.67888341956963
    vertex 43.37998570999268 95.70550736337056 -28.63184175349441
    vertex 34.45004279602629 80.77365288108875 -32.01587904315661
  endloop
endfacet
facet normal -0.223724 -0.639401 -0.735605
  outer loop
    vertex -19.65686141727881 76.17014939562999 -40.98267874452816
    vertex -8.869048505598515 80.71401392806389 -48.21325487302767
    vertex -2.747269984976803 71.28482061274278 -41.87908621662759
  endloop
endfacet
facet normal 0.800985 -0.372874 -0.468389
  outer loop
    vertex 34.45004279602629 80.77365288108875 -32.01587904315661
    vertex 43.37998570999268 95.70550736337056 -28.63184175349441
    vertex 42.45412005411826 84.42170285981761 -21.23235973053782
  endloop
endfacet
facet normal 0.563749 0.329603 -0.757331
  outer loop
    vertex 23.42651593769015 119.6247212498543 -48.01863065218711
    vertex 25.84656690235537 128.7958226585322 -42.22575670269453
    vertex 33.20949387875795 118.4958484818712 -41.22759269429086
  endloop
endfacet
facet normal 0.750432 0.351597 0.559671
  outer loop
    vertex 42.89802390398972 119.4908613951051 15.85763491210315
    vertex 33.78405046045911 131.7418504203422 20.38171850774472
    vertex 33.52948502595757 118.957233419041 28.7546217936345
  endloop
endfacet
facet normal 0.418432 -0.804999 0.420584
  outer loop
    vertex 17.37585047781695 69.60052284820748 23.54924505378576
    vertex 15.35405656292697 60.6662843823394 8.460538557035649
    vertex 29.52919196034265 70.0184547243811 12.25801801258346
  endloop
endfacet
facet normal 0.792005 0.181721 0.582842
  outer loop
    vertex 40.45084971874743 106 23.38926261462357
    vertex 42.89802390398972 119.4908613951051 15.85763491210315
    vertex 33.52948502595757 118.957233419041 28.7546217936345
  endloop
endfacet
facet normal -0.618885 -0.455977 0.639583
  outer loop
    vertex -25.60528798815523 76.14312780865947 24.86966812250482
    vertex -28.2026543489408 89.38254623566161 31.79511235681468
    vertex -37.18740481740814 84.75440550551261 19.80158207401276
  endloop
endfacet
facet normal 0.647165 -0.750621 -0.133212
  outer loop
    vertex 34.41388934646038 69.77339218826901 -4.178707463197366
    vertex 25.26117888586668 63.81705631353422 -15.08141526639437
    vertex 35.61686917784932 73.46934477523968 -19.16036096069332
  endloop
endfacet
facet normal -0.231715 -0.673184 -0.702233
  outer loop
    vertex -2.747269984976803 71.28482061274278 -41.87908621662759
    vertex -12.78214883954118 66.76439503267856 -34.2344465837763
    vertex -19.65686141727881 76.17014939562999 -40.98267874452816
  endloop
endfacet
facet normal -0.443818 0.787229 -0.428131
  outer loop
    vertex -14.53547280397844 149.5051446392685 -25.90031206491818
    vertex -22.46334572990185 140.28659584689 -34.63262900697251
    vertex -27.62308395048066 145.0936027144665 -20.44491121011676
  endloop
endfacet
facet normal 0.572282 -0.819402 -0.0327712
  outer loop
    vertex 34.41388934646038 69.77339218826901 -4.178707463197366
    vertex 24.08707708420834 62.44352160706972 -1.241228357485138
    vertex 25.26117888586668 63.81705631353422 -15.08141526639437
  endloop
endfacet
facet normal -0.0833545 -0.768094 0.634889
  outer loop
    vertex -3.973421630575023 62.75185759791978 18.77519120642805
    vertex 3.826741004873969 69.45639488727443 27.91048478932134
    vertex -11.09431543848823 71.61412545435294 28.56194144839585
  endloop
endfacet
facet normal -0.56815 0.694248 -0.441844
  outer loop
    vertex -27.62308395048066 145.0936027144665 -20.44491121011676
    vertex -22.46334572990185 140.28659584689 -34.63262900697251
    vertex -34.82429852493414 134.6390467942924 -27.61187708091552
  endloop
endfacet
facet normal 0.886959 0.0952046 -0.451928
  outer loop
    vertex 40.45084971874739 106 -35.38926261462363
    vertex 42.38760656534359 119.7121251098155 -28.69952498697732
    vertex 47.55282581475768 106 -21.45084971874738
  endloop
endfacet
facet normal 0.983717 0.179709 -0.00227003
  outer loop
    vertex 50 106 -6.000000000000012
    vertex 47.48242671257691 119.6847636497054 -13.625378504472
    vertex 47.55282581475772 119.4908613951051 1.531627702520533
  endloop
endfacet
facet normal 0.613448 0.424094 0.666202
  outer loop
    vertex 33.78405046045911 131.7418504203422 20.38171850774472
    vertex 23.31006676396475 130.8482909545065 30.59512568771554
    vertex 33.52948502595757 118.957233419041 28.7546217936345
  endloop
endfacet
facet normal -0.0037738 0.995726 -0.0922792
  outer loop
    vertex 7.055055635883525 154.6864510240878 -14.93620034766922
    vertex -6.390632891896574 154.5096052789331 -16.29456200734722
    vertex -3.769784999574042 155.7610828013401 -2.897845991063301
  endloop
endfacet
facet normal 0.546465 -0.356665 -0.757737
  outer loop
    vertex 23.55379503688118 80.01494993307514 -41.63700201167321
    vertex 21.39121238754617 92.84756537484569 -49.23689970409458
    vertex 34.37770515224485 92.43879798556354 -39.67888341956963
  endloop
endfacet
facet normal 0.931179 0.18457 -0.314388
  outer loop
    vertex 42.38760656534359 119.7121251098155 -28.69952498697732
    vertex 47.48242671257691 119.6847636497054 -13.625378504472
    vertex 47.55282581475768 106 -21.45084971874738
  endloop
endfacet
facet normal 0.983304 0.0941166 -0.15574
  outer loop
    vertex 47.55282581475768 106 -21.45084971874738
    vertex 47.48242671257691 119.6847636497054 -13.625378504472
    vertex 50 106 -6.000000000000012
  endloop
endfacet
facet normal -0.00471752 0.18103 -0.983466
  outer loop
    vertex 3.06161699786838e-15 106 -56
    vertex -8.05039687254382 119.3865019449514 -53.49729124773696
    vertex 7.531627702411313 119.4908613948652 -53.55282581484309
  endloop
endfacet
facet normal 0.535507 0.593249 0.601072
  outer loop
    vertex 33.78405046045911 131.7418504203422 20.38171850774472
    vertex 22.1987315661546 142.2394715398743 20.34230474663243
    vertex 23.31006676396475 130.8482909545065 30.59512568771554
  endloop
endfacet
facet normal 0.520498 0.325121 0.789543
  outer loop
    vertex 23.31006676396475 130.8482909545065 30.59512568771554
    vertex 20.44727828595735 116.4285878787553 38.42019096707818
    vertex 33.52948502595757 118.957233419041 28.7546217936345
  endloop
endfacet
facet normal -0.643734 -0.242667 -0.725754
  outer loop
    vertex -30.8330718822691 101.4928413583892 -45.1025216486377
    vertex -28.55475238854997 86.47149840325672 -42.10074433324878
    vertex -37.62672865663455 92.83936288294157 -36.18322251306344
  endloop
endfacet
facet normal 0.37496 0.640126 0.670555
  outer loop
    vertex 22.1987315661546 142.2394715398743 20.34230474663243
    vertex 10.11131449768948 139.6878939712007 29.53712310969976
    vertex 23.31006676396475 130.8482909545065 30.59512568771554
  endloop
endfacet
facet normal 0.28031 0.764403 0.580616
  outer loop
    vertex 22.1987315661546 142.2394715398743 20.34230474663243
    vertex 8.150361093042736 148.8981162046992 18.35822736040403
    vertex 10.11131449768948 139.6878939712007 29.53712310969976
  endloop
endfacet
facet normal 0.330933 0.831278 0.44661
  outer loop
    vertex 22.1987315661546 142.2394715398743 20.34230474663243
    vertex 18.99800761223244 149.9845857426586 8.297969219867371
    vertex 8.150361093042736 148.8981162046992 18.35822736040403
  endloop
endfacet
facet normal 0.0878553 0.776316 0.624191
  outer loop
    vertex 8.150361093042736 148.8981162046992 18.35822736040403
    vertex -4.41144477732509 144.5249041457754 25.56534358335779
    vertex 10.11131449768948 139.6878939712007 29.53712310969976
  endloop
endfacet
facet normal -0.0127254 0.864535 0.502412
  outer loop
    vertex 8.150361093042736 148.8981162046992 18.35822736040403
    vertex -6.146050290023513 151.9304551675788 12.77816162278772
    vertex -4.41144477732509 144.5249041457754 25.56534358335779
  endloop
endfacet
facet normal -0.202044 0.835373 0.511204
  outer loop
    vertex -6.146050290023513 151.9304551675788 12.77816162278772
    vertex -18.52261778689974 144.939736289602 19.31026605977661
    vertex -4.41144477732509 144.5249041457754 25.56534358335779
  endloop
endfacet
facet normal -0.299766 0.878438 0.372137
  outer loop
    vertex -6.146050290023513 151.9304551675788 12.77816162278772
    vertex -19.55659611569126 150.7280509213743 4.813926629244209
    vertex -18.52261778689974 144.939736289602 19.31026605977661
  endloop
endfacet
facet normal -0.263574 0.719672 0.64234
  outer loop
    vertex -18.52261778689974 144.939736289602 19.31026605977661
    vertex -16.29248456727123 135.0919698999472 31.25872024057988
    vertex -4.41144477732509 144.5249041457754 25.56534358335779
  endloop
endfacet
facet normal -0.206193 0.957293 0.20267
  outer loop
    vertex -6.146050290023513 151.9304551675788 12.77816162278772
    vertex -3.769784999574042 155.7610828013401 -2.897845991063301
    vertex -19.55659611569126 150.7280509213743 4.813926629244209
  endloop
endfacet
facet normal -0.468081 0.808678 0.356288
  outer loop
    vertex -19.55659611569126 150.7280509213743 4.813926629244209
    vertex -30.97791226374629 141.6384797751094 10.43982089618841
    vertex -18.52261778689974 144.939736289602 19.31026605977661
  endloop
endfacet
facet normal -0.149303 0.641965 0.752057
  outer loop
    vertex -16.29248456727123 135.0919698999472 31.25872024057988
    vertex -1.741716492175751 132.4819327926604 36.37538978258375
    vertex -4.41144477732509 144.5249041457754 25.56534358335779
  endloop
endfacet
facet normal -0.551099 0.811845 0.192867
  outer loop
    vertex -19.55659611569126 150.7280509213743 4.813926629244209
    vertex -30.71837460913842 145.4323930860325 -4.788456818245995
    vertex -30.97791226374629 141.6384797751094 10.43982089618841
  endloop
endfacet
facet normal -0.205969 0.500353 0.840966
  outer loop
    vertex -16.29248456727123 135.0919698999472 31.25872024057988
    vertex -13.89453227310433 123.5683079285323 38.70231011301241
    vertex -1.741716492175751 132.4819327926604 36.37538978258375
  endloop
endfacet
facet normal -0.693847 0.701448 0.162931
  outer loop
    vertex -30.71837460913842 145.4323930860325 -4.788456818245995
    vertex -40.64314022925506 134.4317334694349 0.3064795431465415
    vertex -30.97791226374629 141.6384797751094 10.43982089618841
  endloop
endfacet
facet normal -0.750752 0.590498 0.296113
  outer loop
    vertex -40.64314022925506 134.4317334694349 0.3064795431465415
    vertex -39.05488161708424 129.0588399684597 15.04771059247302
    vertex -30.97791226374629 141.6384797751094 10.43982089618841
  endloop
endfacet
facet normal -0.741677 0.670748 0.00347522
  outer loop
    vertex -30.71837460913842 145.4323930860325 -4.788456818245995
    vertex -38.43021257503879 136.9531209760063 -14.06368794547824
    vertex -40.64314022925506 134.4317334694349 0.3064795431465415
  endloop
endfacet
facet normal -0.857222 0.447178 0.255347
  outer loop
    vertex -40.64314022925506 134.4317334694349 0.3064795431465415
    vertex -46.61611702021086 120.168077074518 5.234020917219475
    vertex -39.05488161708424 129.0588399684597 15.04771059247302
  endloop
endfacet
facet normal -0.648328 0.747552 -0.144351
  outer loop
    vertex -30.71837460913842 145.4323930860325 -4.788456818245995
    vertex -27.62308395048066 145.0936027144665 -20.44491121011676
    vertex -38.43021257503879 136.9531209760063 -14.06368794547824
  endloop
endfacet
facet normal -0.66217 0.592979 0.458156
  outer loop
    vertex -39.05488161708424 129.0588399684597 15.04771059247302
    vertex -27.65879838147026 134.7863414054135 24.1054383888386
    vertex -30.97791226374629 141.6384797751094 10.43982089618841
  endloop
endfacet
facet normal -0.868054 0.311746 0.386389
  outer loop
    vertex -46.61611702021086 120.168077074518 5.234020917219475
    vertex -42.98212400303071 114.2434876076109 18.17812913050255
    vertex -39.05488161708424 129.0588399684597 15.04771059247302
  endloop
endfacet
facet normal 0.452088 -0.0914433 0.887273
  outer loop
    vertex 15.45084971874751 106 41.55282581475763
    vertex 21.85763491467155 92.50913860347733 36.89802390223524
    vertex 29.38926261462374 106 34.45084971874731
  endloop
endfacet
facet normal -0.785254 0.320139 0.529988
  outer loop
    vertex -42.98212400303071 114.2434876076109 18.17812913050255
    vertex -33.68164548591847 121.712931941883 27.44623337762655
    vertex -39.05488161708424 129.0588399684597 15.04771059247302
  endloop
endfacet
facet normal 0.983575 -0.0911709 0.155783
  outer loop
    vertex 47.5528258147577 106 9.450849718747317
    vertex 47.62466451913853 92.53856667742552 1.119068923770137
    vertex 50 106 -6.000000000000012
  endloop
endfacet
facet normal -0.923301 -0.214414 -0.318656
  outer loop
    vertex -48.6303925231441 96.97987173726153 -13.32954358529081
    vertex -44.87865761323203 102.2013838465763 -27.7135120639946
    vertex -42.64258288813459 87.15397344490974 -24.06757891122669
  endloop
endfacet
facet normal -0.852258 -0.239352 -0.465152
  outer loop
    vertex -44.87865761323203 102.2013838465763 -27.7135120639946
    vertex -37.62672865663455 92.83936288294157 -36.18322251306344
    vertex -42.64258288813459 87.15397344490974 -24.06757891122669
  endloop
endfacet
facet normal 0.578906 -0.183755 -0.794419
  outer loop
    vertex 34.37770515224485 92.43879798556354 -39.67888341956963
    vertex 21.39121238754617 92.84756537484569 -49.23689970409458
    vertex 29.38926261462369 106 -46.45084971874735
  endloop
endfacet
facet normal 0.704069 -0.0925968 -0.704069
  outer loop
    vertex 40.45084971874739 106 -35.38926261462363
    vertex 34.37770515224485 92.43879798556354 -39.67888341956963
    vertex 29.38926261462369 106 -46.45084971874735
  endloop
endfacet
facet normal 0.887399 -0.0898976 0.452152
  outer loop
    vertex 40.45084971874743 106 23.38926261462357
    vertex 43.36333615073416 92.67163659826333 15.02322065977711
    vertex 47.5528258147577 106 9.450849718747317
  endloop
endfacet
facet normal 0.887273 0.0914433 0.452088
  outer loop
    vertex 47.5528258147577 106 9.450849718747317
    vertex 42.89802390398972 119.4908613951051 15.85763491210315
    vertex 40.45084971874743 106 23.38926261462357
  endloop
endfacet
facet normal 0.98355 0.0914433 0.155779
  outer loop
    vertex 50 106 -6.000000000000012
    vertex 47.55282581475772 119.4908613951051 1.531627702520533
    vertex 47.5528258147577 106 9.450849718747317
  endloop
endfacet
facet normal 0.155779 -0.0914433 0.98355
  outer loop
    vertex 3.06161699786838e-15 106 44
    vertex 7.531627702520537 92.50913860489531 41.55282581475784
    vertex 15.45084971874751 106 41.55282581475763
  endloop
endfacet
facet normal 0.155606 -0.102795 -0.982456
  outer loop
    vertex 15.45084971874736 106 -53.55282581475768
    vertex 9.151836486108168 91.82623164445404 -53.06748537509586
    vertex 3.06161699786838e-15 106 -56
  endloop
endfacet
facet normal -0.910676 0.109268 -0.398409
  outer loop
    vertex -48.32607517732975 112.6602979468278 -16.96498468829556
    vertex -41.55625213028632 118.4924776104555 -30.83980499191455
    vertex -44.87865761323203 102.2013838465763 -27.7135120639946
  endloop
endfacet
facet normal -0.962787 -0.0431694 -0.266792
  outer loop
    vertex -48.6303925231441 96.97987173726153 -13.32954358529081
    vertex -48.32607517732975 112.6602979468278 -16.96498468829556
    vertex -44.87865761323203 102.2013838465763 -27.7135120639946
  endloop
endfacet
facet normal 0.19574 -0.956399 -0.216766
  outer loop
    vertex 13.60064222710866 61.62138660584479 -24.5892765922264
    vertex 13.98623457707167 58.06337715187808 -8.542721430286845
    vertex 0.5399031601855624 57.20403116535861 -16.8932056836511
  endloop
endfacet
facet normal -0.951888 -0.305996 -0.0166104
  outer loop
    vertex -44.0794305361674 82.58578716205801 -8.962843361830865
    vertex -48.21085681336853 94.88485067798732 1.222654696871385
    vertex -48.6303925231441 96.97987173726153 -13.32954358529081
  endloop
endfacet
facet normal -0.755118 -0.523745 -0.394319
  outer loop
    vertex -42.64258288813459 87.15397344490974 -24.06757891122669
    vertex -32.66753785194054 79.57352291908774 -33.10116749854241
    vertex -35.9417480406774 73.86501105352052 -19.24889554604848
  endloop
endfacet
facet normal 0.155779 0.0914433 -0.98355
  outer loop
    vertex 3.06161699786838e-15 106 -56
    vertex 7.531627702411313 119.4908613948652 -53.55282581484309
    vertex 15.45084971874736 106 -53.55282581475768
  endloop
endfacet
facet normal 0.420958 -0.667136 -0.614593
  outer loop
    vertex 12.44118052107136 69.63088336436198 -37.97662243554613
    vertex 23.55379503688118 80.01494993307514 -41.63700201167321
    vertex 25.48423766022871 69.77086061150618 -29.19489362006357
  endloop
endfacet
facet normal 0.347429 -0.791121 -0.503409
  outer loop
    vertex 12.44118052107136 69.63088336436198 -37.97662243554613
    vertex 25.48423766022871 69.77086061150618 -29.19489362006357
    vertex 13.60064222710866 61.62138660584479 -24.5892765922264
  endloop
endfacet
facet normal 0.0795757 -0.768174 -0.635277
  outer loop
    vertex -0.2807345380140283 63.08295986288454 -31.65246292246394
    vertex -2.747269984976803 71.28482061274278 -41.87908621662759
    vertex 12.44118052107136 69.63088336436198 -37.97662243554613
  endloop
endfacet
facet normal -0.0870464 -0.927142 -0.36446
  outer loop
    vertex -13.34340683959545 61.02409406379691 -23.29512587785498
    vertex -0.2807345380140283 63.08295986288454 -31.65246292246394
    vertex 0.5399031601855624 57.20403116535861 -16.8932056836511
  endloop
endfacet
facet normal -0.917309 -0.348468 -0.192648
  outer loop
    vertex -44.0794305361674 82.58578716205801 -8.962843361830865
    vertex -48.6303925231441 96.97987173726153 -13.32954358529081
    vertex -42.64258288813459 87.15397344490974 -24.06757891122669
  endloop
endfacet
facet normal 0.0925288 -0.923249 -0.372894
  outer loop
    vertex -0.2807345380140283 63.08295986288454 -31.65246292246394
    vertex 13.60064222710866 61.62138660584479 -24.5892765922264
    vertex 0.5399031601855624 57.20403116535861 -16.8932056836511
  endloop
endfacet
facet normal 0.174613 -0.83822 -0.516621
  outer loop
    vertex -0.2807345380140283 63.08295986288454 -31.65246292246394
    vertex 12.44118052107136 69.63088336436198 -37.97662243554613
    vertex 13.60064222710866 61.62138660584479 -24.5892765922264
  endloop
endfacet
facet normal -0.170235 -0.963663 -0.205849
  outer loop
    vertex -13.34340683959545 61.02409406379691 -23.29512587785498
    vertex 0.5399031601855624 57.20403116535861 -16.8932056836511
    vertex -12.38439972555859 57.60221144443554 -8.068986797555281
  endloop
endfacet
facet normal -0.832325 -0.503633 -0.231491
  outer loop
    vertex -44.0794305361674 82.58578716205801 -8.962843361830865
    vertex -42.64258288813459 87.15397344490974 -24.06757891122669
    vertex -35.9417480406774 73.86501105352052 -19.24889554604848
  endloop
endfacet
facet normal -0.78228 -0.615291 -0.0972316
  outer loop
    vertex -35.3768382392714 70.72663076281799 -3.933907347225878
    vertex -44.0794305361674 82.58578716205801 -8.962843361830865
    vertex -35.9417480406774 73.86501105352052 -19.24889554604848
  endloop
endfacet
facet normal -0.346325 -0.919716 -0.184882
  outer loop
    vertex -25.44431505293069 63.65958212223428 -13.73794839885751
    vertex -13.34340683959545 61.02409406379691 -23.29512587785498
    vertex -12.38439972555859 57.60221144443554 -8.068986797555281
  endloop
endfacet
facet normal -0.655875 -0.743895 -0.128248
  outer loop
    vertex -35.3768382392714 70.72663076281799 -3.933907347225878
    vertex -35.9417480406774 73.86501105352052 -19.24889554604848
    vertex -25.44431505293069 63.65958212223428 -13.73794839885751
  endloop
endfacet
facet normal -0.415194 -0.909602 -0.0154184
  outer loop
    vertex -25.44431505293069 63.65958212223428 -13.73794839885751
    vertex -12.38439972555859 57.60221144443554 -8.068986797555281
    vertex -23.3909068555591 62.46273515047115 1.574433701375824
  endloop
endfacet
facet normal -0.571471 -0.820527 0.0125008
  outer loop
    vertex -35.3768382392714 70.72663076281799 -3.933907347225878
    vertex -25.44431505293069 63.65958212223428 -13.73794839885751
    vertex -23.3909068555591 62.46273515047115 1.574433701375824
  endloop
endfacet
facet normal -0.61326 -0.768885 0.180909
  outer loop
    vertex -31.85430400409642 71.44769544998431 11.07165975227866
    vertex -35.3768382392714 70.72663076281799 -3.933907347225878
    vertex -23.3909068555591 62.46273515047115 1.574433701375824
  endloop
endfacet
facet normal -0.647816 -0.582062 0.491466
  outer loop
    vertex -25.60528798815523 76.14312780865947 24.86966812250482
    vertex -37.18740481740814 84.75440550551261 19.80158207401276
    vertex -31.85430400409642 71.44769544998431 11.07165975227866
  endloop
endfacet
facet normal -0.498058 -0.806335 0.319001
  outer loop
    vertex -31.85430400409642 71.44769544998431 11.07165975227866
    vertex -23.3909068555591 62.46273515047115 1.574433701375824
    vertex -18.40584868552961 65.21085684918094 16.30404750684008
  endloop
endfacet
facet normal 0.150262 0.925512 -0.347634
  outer loop
    vertex 15.25496302851333 149.1461619021007 -26.1418672450298
    vertex -0.2023517330028909 151.1629352159725 -27.45386530334383
    vertex 7.055055635883525 154.6864510240878 -14.93620034766922
  endloop
endfacet
facet normal -0.515598 -0.712472 0.475964
  outer loop
    vertex -25.60528798815523 76.14312780865947 24.86966812250482
    vertex -31.85430400409642 71.44769544998431 11.07165975227866
    vertex -18.40584868552961 65.21085684918094 16.30404750684008
  endloop
endfacet
facet normal -0.566468 -0.018622 0.823873
  outer loop
    vertex -26.03149864386602 113.8093381623108 35.96874212817294
    vertex -35.0192223111204 102.7371179266935 29.53881918831888
    vertex -22.52168028629945 98.70619555616179 38.04059869957216
  endloop
endfacet
facet normal -0.231188 -0.798916 0.555235
  outer loop
    vertex -18.40584868552961 65.21085684918094 16.30404750684008
    vertex -3.973421630575023 62.75185759791978 18.77519120642805
    vertex -11.09431543848823 71.61412545435294 28.56194144839585
  endloop
endfacet
facet normal -0.25805 -0.194311 -0.94639
  outer loop
    vertex -14.59173611298374 105.180985264596 -53.8164245011297
    vertex -4.364348088050371 93.34932014931135 -54.1758525101706
    vertex -19.11477189160952 90.80253682839839 -49.6309822108046
  endloop
endfacet
facet normal 0.303269 0.92355 -0.234699
  outer loop
    vertex 15.25496302851333 149.1461619021007 -26.1418672450298
    vertex 7.055055635883525 154.6864510240878 -14.93620034766922
    vertex 22.26766804608021 150.269710667936 -12.659104832244
  endloop
endfacet
facet normal -0.412582 0.0290172 0.910458
  outer loop
    vertex -12.31603008985272 109.7653597121364 42.31291203254118
    vertex -26.03149864386602 113.8093381623108 35.96874212817294
    vertex -22.52168028629945 98.70619555616179 38.04059869957216
  endloop
endfacet
facet normal -0.373514 -0.711924 0.594686
  outer loop
    vertex -25.60528798815523 76.14312780865947 24.86966812250482
    vertex -18.40584868552961 65.21085684918094 16.30404750684008
    vertex -11.09431543848823 71.61412545435294 28.56194144839585
  endloop
endfacet
facet normal -0.448839 -0.116704 -0.885959
  outer loop
    vertex -14.59173611298374 105.180985264596 -53.8164245011297
    vertex -19.11477189160952 90.80253682839839 -49.6309822108046
    vertex -30.8330718822691 101.4928413583892 -45.1025216486377
  endloop
endfacet
facet normal 0.450435 0.839376 -0.304229
  outer loop
    vertex 29.21903159728002 142.6232507696577 -23.46383965741544
    vertex 15.25496302851333 149.1461619021007 -26.1418672450298
    vertex 22.26766804608021 150.269710667936 -12.659104832244
  endloop
endfacet
facet normal -0.367195 -0.590821 0.7184
  outer loop
    vertex -17.630188091665 83.59849202034941 35.07735273955911
    vertex -25.60528798815523 76.14312780865947 24.86966812250482
    vertex -11.09431543848823 71.61412545435294 28.56194144839585
  endloop
endfacet
facet normal -0.289905 -0.100163 0.9518
  outer loop
    vertex -7.932822660617392 94.75068250693414 42.06790177005231
    vertex -12.31603008985272 109.7653597121364 42.31291203254118
    vertex -22.52168028629945 98.70619555616179 38.04059869957216
  endloop
endfacet
facet normal -0.47726 0.0263957 -0.878366
  outer loop
    vertex -14.59173611298374 105.180985264596 -53.8164245011297
    vertex -30.8330718822691 101.4928413583892 -45.1025216486377
    vertex -22.89184555998154 117.5089292290675 -48.9360915181886
  endloop
endfacet
facet normal 0.606504 0.778642 -0.160839
  outer loop
    vertex 29.21903159728002 142.6232507696577 -23.46383965741544
    vertex 22.26766804608021 150.269710667936 -12.659104832244
    vertex 35.43146763665564 141.2744884412314 -6.567068181137317
  endloop
endfacet
facet normal -0.325663 -0.282424 0.90232
  outer loop
    vertex -7.932822660617392 94.75068250693414 42.06790177005231
    vertex -22.52168028629945 98.70619555616179 38.04059869957216
    vertex -17.630188091665 83.59849202034941 35.07735273955911
  endloop
endfacet
facet normal -0.205711 -0.551638 0.808319
  outer loop
    vertex -17.630188091665 83.59849202034941 35.07735273955911
    vertex -11.09431543848823 71.61412545435294 28.56194144839585
    vertex -2.149679768447887 81.03997013097947 37.27095776419478
  endloop
endfacet
facet normal 0.0111458 0.683132 -0.73021
  outer loop
    vertex -7.360572632355838 142.8063647974895 -39.03200691629169
    vertex 8.152704162560106 143.065358903588 -38.5529197490176
    vertex -0.09552040103732788 133.0412474583945 -48.05665003001142
  endloop
endfacet
facet normal -0.308634 0.163171 -0.937081
  outer loop
    vertex -8.05039687254382 119.3865019449514 -53.49729124773696
    vertex -14.59173611298374 105.180985264596 -53.8164245011297
    vertex -22.89184555998154 117.5089292290675 -48.9360915181886
  endloop
endfacet
facet normal -0.460094 0.399306 -0.793012
  outer loop
    vertex -22.89184555998154 117.5089292290675 -48.9360915181886
    vertex -29.44371593148213 128.3009487621414 -39.70067175079054
    vertex -15.83519602868482 131.5158927311859 -45.97731587867973
  endloop
endfacet
facet normal 0.705464 0.678382 -0.205227
  outer loop
    vertex 29.21903159728002 142.6232507696577 -23.46383965741544
    vertex 35.43146763665564 141.2744884412314 -6.567068181137317
    vertex 40.29499177479025 132.2467410063968 -19.69022368015634
  endloop
endfacet
facet normal 0.566202 0.650875 -0.505745
  outer loop
    vertex 33.40020776764383 131.5068327985579 -33.0892525121059
    vertex 20.98404236214625 139.9881875929399 -36.0744587697065
    vertex 29.21903159728002 142.6232507696577 -23.46383965741544
  endloop
endfacet
facet normal -0.192614 -0.395449 0.898065
  outer loop
    vertex -7.932822660617392 94.75068250693414 42.06790177005231
    vertex -17.630188091665 83.59849202034941 35.07735273955911
    vertex -2.149679768447887 81.03997013097947 37.27095776419478
  endloop
endfacet
facet normal 0.706813 -0.672297 0.220075
  outer loop
    vertex 40.95998478652137 80.06156261500422 6.226083277672821
    vertex 29.52919196034265 70.0184547243811 12.25801801258346
    vertex 34.41388934646038 69.77339218826901 -4.178707463197366
  endloop
endfacet
facet normal -0.161643 0.602239 -0.78178
  outer loop
    vertex -15.83519602868482 131.5158927311859 -45.97731587867973
    vertex -7.360572632355838 142.8063647974895 -39.03200691629169
    vertex -0.09552040103732788 133.0412474583945 -48.05665003001142
  endloop
endfacet
facet normal -0.315341 0.345563 -0.883825
  outer loop
    vertex -8.05039687254382 119.3865019449514 -53.49729124773696
    vertex -22.89184555998154 117.5089292290675 -48.9360915181886
    vertex -15.83519602868482 131.5158927311859 -45.97731587867973
  endloop
endfacet
facet normal 0.696603 0.601129 -0.391648
  outer loop
    vertex 33.40020776764383 131.5068327985579 -33.0892525121059
    vertex 29.21903159728002 142.6232507696577 -23.46383965741544
    vertex 40.29499177479025 132.2467410063968 -19.69022368015634
  endloop
endfacet
facet normal 0.798816 -0.595377 0.0861344
  outer loop
    vertex 40.95998478652137 80.06156261500422 6.226083277672821
    vertex 34.41388934646038 69.77339218826901 -4.178707463197366
    vertex 43.29351166211908 81.09191137896961 -8.293244254076743
  endloop
endfacet
facet normal 0.399536 -0.597185 0.695515
  outer loop
    vertex 13.68206188549011 79.29778420061638 33.99741059074657
    vertex 17.37585047781695 69.60052284820748 23.54924505378576
    vertex 27.17315829097638 81.03997012805905 27.74339012733245
  endloop
endfacet
facet normal -0.0174534 -0.33674 0.941436
  outer loop
    vertex 7.531627702520537 92.50913860489531 41.55282581475784
    vertex -7.932822660617392 94.75068250693414 42.06790177005231
    vertex -2.149679768447887 81.03997013097947 37.27095776419478
  endloop
endfacet
facet normal -0.582234 -0.757857 -0.294376
  outer loop
    vertex -35.9417480406774 73.86501105352052 -19.24889554604848
    vertex -24.49582456161865 68.66005573175062 -28.48739960712289
    vertex -25.44431505293069 63.65958212223428 -13.73794839885751
  endloop
endfacet
facet normal -0.159516 0.444202 -0.881612
  outer loop
    vertex -8.05039687254382 119.3865019449514 -53.49729124773696
    vertex -15.83519602868482 131.5158927311859 -45.97731587867973
    vertex -0.09552040103732788 133.0412474583945 -48.05665003001142
  endloop
endfacet
facet normal 0.788118 0.440546 -0.429872
  outer loop
    vertex 42.38760656534359 119.7121251098155 -28.69952498697732
    vertex 33.40020776764383 131.5068327985579 -33.0892525121059
    vertex 40.29499177479025 132.2467410063968 -19.69022368015634
  endloop
endfacet
facet normal 0.815431 -0.545622 -0.193311
  outer loop
    vertex 35.61686917784932 73.46934477523968 -19.16036096069332
    vertex 42.45412005411826 84.42170285981761 -21.23235973053782
    vertex 43.29351166211908 81.09191137896961 -8.293244254076743
  endloop
endfacet
facet normal 0.766076 -0.635646 -0.0952996
  outer loop
    vertex 34.41388934646038 69.77339218826901 -4.178707463197366
    vertex 35.61686917784932 73.46934477523968 -19.16036096069332
    vertex 43.29351166211908 81.09191137896961 -8.293244254076743
  endloop
endfacet
facet normal 0.424161 -0.436668 0.793353
  outer loop
    vertex 13.68206188549011 79.29778420061638 33.99741059074657
    vertex 27.17315829097638 81.03997012805905 27.74339012733245
    vertex 21.85763491467155 92.50913860347733 36.89802390223524
  endloop
endfacet
facet normal 0.134301 -0.44409 0.88586
  outer loop
    vertex 7.531627702520537 92.50913860489531 41.55282581475784
    vertex -2.149679768447887 81.03997013097947 37.27095776419478
    vertex 13.68206188549011 79.29778420061638 33.99741059074657
  endloop
endfacet
facet normal 0.894895 -0.431683 0.113192
  outer loop
    vertex 40.95998478652137 80.06156261500422 6.226083277672821
    vertex 43.29351166211908 81.09191137896961 -8.293244254076743
    vertex 47.62466451913853 92.53856667742552 1.119068923770137
  endloop
endfacet
facet normal 0.752573 -0.540872 -0.375622
  outer loop
    vertex 35.61686917784932 73.46934477523968 -19.16036096069332
    vertex 34.45004279602629 80.77365288108875 -32.01587904315661
    vertex 42.45412005411826 84.42170285981761 -21.23235973053782
  endloop
endfacet
facet normal -0.00580516 0.373054 -0.927791
  outer loop
    vertex 7.531627702411313 119.4908613948652 -53.55282581484309
    vertex -8.05039687254382 119.3865019449514 -53.49729124773696
    vertex -0.09552040103732788 133.0412474583945 -48.05665003001142
  endloop
endfacet
facet normal 0.78544 0.178232 -0.59272
  outer loop
    vertex 40.45084971874739 106 -35.38926261462363
    vertex 33.20949387875795 118.4958484818712 -41.22759269429086
    vertex 42.38760656534359 119.7121251098155 -28.69952498697732
  endloop
endfacet
facet normal 0.883438 0.361627 -0.297932
  outer loop
    vertex 42.38760656534359 119.7121251098155 -28.69952498697732
    vertex 40.29499177479025 132.2467410063968 -19.69022368015634
    vertex 47.48242671257691 119.6847636497054 -13.625378504472
  endloop
endfacet
facet normal 0.359478 -0.429918 -0.828218
  outer loop
    vertex 23.55379503688118 80.01494993307514 -41.63700201167321
    vertex 9.973258363961977 79.96468277042635 -47.50537765592704
    vertex 21.39121238754617 92.84756537484569 -49.23689970409458
  endloop
endfacet
facet normal 0.304055 -0.178482 0.935786
  outer loop
    vertex 15.45084971874751 106 41.55282581475763
    vertex 7.531627702520537 92.50913860489531 41.55282581475784
    vertex 21.85763491467155 92.50913860347733 36.89802390223524
  endloop
endfacet
facet normal 0.940965 -0.174505 0.290056
  outer loop
    vertex 47.5528258147577 106 9.450849718747317
    vertex 43.36333615073416 92.67163659826333 15.02322065977711
    vertex 47.62466451913853 92.53856667742552 1.119068923770137
  endloop
endfacet
facet normal 0.452269 -0.0870025 -0.887628
  outer loop
    vertex 29.38926261462369 106 -46.45084971874735
    vertex 21.39121238754617 92.84756537484569 -49.23689970409458
    vertex 15.45084971874736 106 -53.55282581475768
  endloop
endfacet
facet normal 0.935786 0.178482 0.304055
  outer loop
    vertex 47.55282581475772 119.4908613951051 1.531627702520533
    vertex 42.89802390398972 119.4908613951051 15.85763491210315
    vertex 47.5528258147577 106 9.450849718747317
  endloop
endfacet
facet normal -0.15243 0.0922967 -0.983995
  outer loop
    vertex 3.06161699786838e-15 106 -56
    vertex -14.59173611298374 105.180985264596 -53.8164245011297
    vertex -8.05039687254382 119.3865019449514 -53.49729124773696
  endloop
endfacet
facet normal 0.647849 -0.635574 -0.419925
  outer loop
    vertex 25.48423766022871 69.77086061150618 -29.19489362006357
    vertex 34.45004279602629 80.77365288108875 -32.01587904315661
    vertex 35.61686917784932 73.46934477523968 -19.16036096069332
  endloop
endfacet
facet normal 0.476645 -0.834591 0.276165
  outer loop
    vertex 15.35405656292697 60.6662843823394 8.460538557035649
    vertex 24.08707708420834 62.44352160706972 -1.241228357485138
    vertex 29.52919196034265 70.0184547243811 12.25801801258346
  endloop
endfacet
facet normal 0.739419 0.3492 -0.575603
  outer loop
    vertex 42.38760656534359 119.7121251098155 -28.69952498697732
    vertex 33.20949387875795 118.4958484818712 -41.22759269429086
    vertex 33.40020776764383 131.5068327985579 -33.0892525121059
  endloop
endfacet
facet normal 0.155026 0.609533 -0.777455
  outer loop
    vertex -0.09552040103732788 133.0412474583945 -48.05665003001142
    vertex 8.152704162560106 143.065358903588 -38.5529197490176
    vertex 15.23336466329323 131.4195690689405 -46.2714552677761
  endloop
endfacet
facet normal 0.286911 -0.371421 0.883022
  outer loop
    vertex 7.531627702520537 92.50913860489531 41.55282581475784
    vertex 13.68206188549011 79.29778420061638 33.99741059074657
    vertex 21.85763491467155 92.50913860347733 36.89802390223524
  endloop
endfacet
facet normal 0.890138 -0.362389 0.276277
  outer loop
    vertex 43.36333615073416 92.67163659826333 15.02322065977711
    vertex 40.95998478652137 80.06156261500422 6.226083277672821
    vertex 47.62466451913853 92.53856667742552 1.119068923770137
  endloop
endfacet
facet normal -0.534399 -0.242839 -0.809597
  outer loop
    vertex -19.11477189160952 90.80253682839839 -49.6309822108046
    vertex -28.55475238854997 86.47149840325672 -42.10074433324878
    vertex -30.8330718822691 101.4928413583892 -45.1025216486377
  endloop
endfacet
facet normal 0.603698 -0.774007 0.190948
  outer loop
    vertex 29.52919196034265 70.0184547243811 12.25801801258346
    vertex 24.08707708420834 62.44352160706972 -1.241228357485138
    vertex 34.41388934646038 69.77339218826901 -4.178707463197366
  endloop
endfacet
facet normal -0.153336 0.84383 -0.514237
  outer loop
    vertex -7.360572632355838 142.8063647974895 -39.03200691629169
    vertex -14.53547280397844 149.5051446392685 -25.90031206491818
    vertex -0.2023517330028909 151.1629352159725 -27.45386530334383
  endloop
endfacet
facet normal -0.309919 0.65598 -0.688216
  outer loop
    vertex -15.83519602868482 131.5158927311859 -45.97731587867973
    vertex -22.46334572990185 140.28659584689 -34.63262900697251
    vertex -7.360572632355838 142.8063647974895 -39.03200691629169
  endloop
endfacet
facet normal 0.447141 0.771189 -0.453137
  outer loop
    vertex 20.98404236214625 139.9881875929399 -36.0744587697065
    vertex 15.25496302851333 149.1461619021007 -26.1418672450298
    vertex 29.21903159728002 142.6232507696577 -23.46383965741544
  endloop
endfacet
facet normal -0.763396 -0.402714 -0.505022
  outer loop
    vertex -42.64258288813459 87.15397344490974 -24.06757891122669
    vertex -37.62672865663455 92.83936288294157 -36.18322251306344
    vertex -32.66753785194054 79.57352291908774 -33.10116749854241
  endloop
endfacet
facet normal -0.682587 0.45965 0.568152
  outer loop
    vertex -33.68164548591847 121.712931941883 27.44623337762655
    vertex -27.65879838147026 134.7863414054135 24.1054383888386
    vertex -39.05488161708424 129.0588399684597 15.04771059247302
  endloop
endfacet
facet normal -0.527479 0.701182 0.479697
  outer loop
    vertex -30.97791226374629 141.6384797751094 10.43982089618841
    vertex -27.65879838147026 134.7863414054135 24.1054383888386
    vertex -18.52261778689974 144.939736289602 19.31026605977661
  endloop
endfacet
facet normal 0.0204064 0.670349 0.741765
  outer loop
    vertex -4.41144477732509 144.5249041457754 25.56534358335779
    vertex -1.741716492175751 132.4819327926604 36.37538978258375
    vertex 10.11131449768948 139.6878939712007 29.53712310969976
  endloop
endfacet
facet normal -0.432326 -0.845156 -0.314333
  outer loop
    vertex -25.44431505293069 63.65958212223428 -13.73794839885751
    vertex -24.49582456161865 68.66005573175062 -28.48739960712289
    vertex -13.34340683959545 61.02409406379691 -23.29512587785498
  endloop
endfacet
facet normal -0.633502 -0.651084 -0.41805
  outer loop
    vertex -32.66753785194054 79.57352291908774 -33.10116749854241
    vertex -24.49582456161865 68.66005573175062 -28.48739960712289
    vertex -35.9417480406774 73.86501105352052 -19.24889554604848
  endloop
endfacet
facet normal 0.493768 0.785199 0.373706
  outer loop
    vertex 22.1987315661546 142.2394715398743 20.34230474663243
    vertex 31.25766398383384 142.4702910558281 7.887991668233527
    vertex 18.99800761223244 149.9845857426586 8.297969219867371
  endloop
endfacet
facet normal -0.0678683 -0.996207 -0.0544502
  outer loop
    vertex 0.5399031601855624 57.20403116535861 -16.8932056836511
    vertex 2.187826338655493 56.25063034130532 -1.504042429644785
    vertex -12.38439972555859 57.60221144443554 -8.068986797555281
  endloop
endfacet
facet normal 0.704571 0.0846104 0.704571
  outer loop
    vertex 40.45084971874743 106 23.38926261462357
    vertex 33.52948502595757 118.957233419041 28.7546217936345
    vertex 29.38926261462374 106 34.45084971874731
  endloop
endfacet
facet normal -0.91525 -0.390274 0.100016
  outer loop
    vertex -44.0794305361674 82.58578716205801 -8.962843361830865
    vertex -42.14925023606931 81.85657860663319 5.854784180217234
    vertex -48.21085681336853 94.88485067798732 1.222654696871385
  endloop
endfacet
facet normal 0.293746 0.781204 -0.550848
  outer loop
    vertex 20.98404236214625 139.9881875929399 -36.0744587697065
    vertex 8.152704162560106 143.065358903588 -38.5529197490176
    vertex 15.25496302851333 149.1461619021007 -26.1418672450298
  endloop
endfacet
facet normal 0.108732 -0.991383 -0.0730622
  outer loop
    vertex 13.98623457707167 58.06337715187808 -8.542721430286845
    vertex 2.187826338655493 56.25063034130532 -1.504042429644785
    vertex 0.5399031601855624 57.20403116535861 -16.8932056836511
  endloop
endfacet
facet normal 0.149801 0.442871 -0.883982
  outer loop
    vertex 7.531627702411313 119.4908613948652 -53.55282581484309
    vertex -0.09552040103732788 133.0412474583945 -48.05665003001142
    vertex 15.23336466329323 131.4195690689405 -46.2714552677761
  endloop
endfacet
facet normal 0.798456 0.443743 0.406891
  outer loop
    vertex 42.89802390398972 119.4908613951051 15.85763491210315
    vertex 41.12068172363085 131.8517260482226 5.864981875734097
    vertex 33.78405046045911 131.7418504203422 20.38171850774472
  endloop
endfacet
facet normal -0.347828 -0.467457 -0.812711
  outer loop
    vertex -19.11477189160952 90.80253682839839 -49.6309822108046
    vertex -8.869048505598515 80.71401392806389 -48.21325487302767
    vertex -19.65686141727881 76.17014939562999 -40.98267874452816
  endloop
endfacet
facet normal 0.704889 0.0791444 -0.704889
  outer loop
    vertex 29.38926261462369 106 -46.45084971874735
    vertex 33.20949387875795 118.4958484818712 -41.22759269429086
    vertex 40.45084971874739 106 -35.38926261462363
  endloop
endfacet
facet normal -0.907794 0.246555 -0.339295
  outer loop
    vertex -48.32607517732975 112.6602979468278 -16.96498468829556
    vertex -43.40089732002988 126.3874413179822 -20.16736913904824
    vertex -41.55625213028632 118.4924776104555 -30.83980499191455
  endloop
endfacet
facet normal 0.810924 -0.173562 0.558819
  outer loop
    vertex 40.45084971874743 106 23.38926261462357
    vertex 35.01689470484141 92.97845524705323 27.23035445909438
    vertex 43.36333615073416 92.67163659826333 15.02322065977711
  endloop
endfacet
facet normal 0.586194 -0.184144 0.788966
  outer loop
    vertex 21.85763491467155 92.50913860347733 36.89802390223524
    vertex 35.01689470484141 92.97845524705323 27.23035445909438
    vertex 29.38926261462374 106 34.45084971874731
  endloop
endfacet
facet normal 0.564866 -0.33879 0.752428
  outer loop
    vertex 27.17315829097638 81.03997012805905 27.74339012733245
    vertex 35.01689470484141 92.97845524705323 27.23035445909438
    vertex 21.85763491467155 92.50913860347733 36.89802390223524
  endloop
endfacet
facet normal -0.81935 -0.567854 0.0787852
  outer loop
    vertex -35.3768382392714 70.72663076281799 -3.933907347225878
    vertex -42.14925023606931 81.85657860663319 5.854784180217234
    vertex -44.0794305361674 82.58578716205801 -8.962843361830865
  endloop
endfacet
facet normal 0.00751461 -0.174414 0.984644
  outer loop
    vertex 3.06161699786838e-15 106 44
    vertex -7.932822660617392 94.75068250693414 42.06790177005231
    vertex 7.531627702520537 92.50913860489531 41.55282581475784
  endloop
endfacet
facet normal 0.119557 -0.657446 -0.743956
  outer loop
    vertex -2.747269984976803 71.28482061274278 -41.87908621662759
    vertex 9.973258363961977 79.96468277042635 -47.50537765592704
    vertex 12.44118052107136 69.63088336436198 -37.97662243554613
  endloop
endfacet
facet normal 0.936734 -0.163975 -0.309261
  outer loop
    vertex 47.81148195308191 93.92855245497623 -14.26694306366402
    vertex 43.37998570999268 95.70550736337056 -28.63184175349441
    vertex 47.55282581475768 106 -21.45084971874738
  endloop
endfacet
facet normal -0.945869 -0.144093 0.290808
  outer loop
    vertex -44.07419338134819 97.94903321626269 16.1956620002802
    vertex -47.82472816649877 107.1260244583556 8.543983110540411
    vertex -48.21085681336853 94.88485067798732 1.222654696871385
  endloop
endfacet
facet normal 0.307196 -0.168593 -0.936593
  outer loop
    vertex 15.45084971874736 106 -53.55282581475768
    vertex 21.39121238754617 92.84756537484569 -49.23689970409458
    vertex 9.151836486108168 91.82623164445404 -53.06748537509586
  endloop
endfacet
facet normal -0.515943 -0.63117 -0.579161
  outer loop
    vertex -32.66753785194054 79.57352291908774 -33.10116749854241
    vertex -19.65686141727881 76.17014939562999 -40.98267874452816
    vertex -24.49582456161865 68.66005573175062 -28.48739960712289
  endloop
endfacet
facet normal -0.84724 0.071781 -0.526338
  outer loop
    vertex -41.55625213028632 118.4924776104555 -30.83980499191455
    vertex -38.40079709392592 103.6887513764754 -37.93801672539149
    vertex -44.87865761323203 102.2013838465763 -27.7135120639946
  endloop
endfacet
facet normal 0.304671 -0.386998 -0.870292
  outer loop
    vertex 21.39121238754617 92.84756537484569 -49.23689970409458
    vertex 9.973258363961977 79.96468277042635 -47.50537765592704
    vertex 9.151836486108168 91.82623164445404 -53.06748537509586
  endloop
endfacet
facet normal -0.851189 0.523391 -0.0392443
  outer loop
    vertex -38.43021257503879 136.9531209760063 -14.06368794547824
    vertex -46.44256605450417 124.3248775531273 -8.699429742724941
    vertex -40.64314022925506 134.4317334694349 0.3064795431465415
  endloop
endfacet
facet normal 0.31917 -0.600115 -0.73348
  outer loop
    vertex 12.44118052107136 69.63088336436198 -37.97662243554613
    vertex 9.973258363961977 79.96468277042635 -47.50537765592704
    vertex 23.55379503688118 80.01494993307514 -41.63700201167321
  endloop
endfacet
facet normal -0.99235 -0.122971 0.0109055
  outer loop
    vertex -48.21085681336853 94.88485067798732 1.222654696871385
    vertex -49.88391513282991 107.9905232236325 -3.237242624332896
    vertex -48.6303925231441 96.97987173726153 -13.32954358529081
  endloop
endfacet
facet normal 0.90684 -0.280625 -0.314469
  outer loop
    vertex 42.45412005411826 84.42170285981761 -21.23235973053782
    vertex 43.37998570999268 95.70550736337056 -28.63184175349441
    vertex 47.81148195308191 93.92855245497623 -14.26694306366402
  endloop
endfacet
facet normal -0.52433 0.842745 -0.121896
  outer loop
    vertex -30.71837460913842 145.4323930860325 -4.788456818245995
    vertex -18.46930387388818 152.2784590800977 -10.14596666480793
    vertex -27.62308395048066 145.0936027144665 -20.44491121011676
  endloop
endfacet
facet normal -0.901949 0.416768 0.113101
  outer loop
    vertex -40.64314022925506 134.4317334694349 0.3064795431465415
    vertex -46.44256605450417 124.3248775531273 -8.699429742724941
    vertex -46.61611702021086 120.168077074518 5.234020917219475
  endloop
endfacet
facet normal -0.993308 -0.00744352 -0.115254
  outer loop
    vertex -48.6303925231441 96.97987173726153 -13.32954358529081
    vertex -49.88391513282991 107.9905232236325 -3.237242624332896
    vertex -48.32607517732975 112.6602979468278 -16.96498468829556
  endloop
endfacet
facet normal -0.467823 0.881956 0.0574023
  outer loop
    vertex -19.55659611569126 150.7280509213743 4.813926629244209
    vertex -18.46930387388818 152.2784590800977 -10.14596666480793
    vertex -30.71837460913842 145.4323930860325 -4.788456818245995
  endloop
endfacet
facet normal -0.799 0.112895 -0.590638
  outer loop
    vertex -34.43480279190329 114.6026019740923 -41.2170355929921
    vertex -38.40079709392592 103.6887513764754 -37.93801672539149
    vertex -41.55625213028632 118.4924776104555 -30.83980499191455
  endloop
endfacet
facet normal -0.679977 0.671013 -0.29559
  outer loop
    vertex -27.62308395048066 145.0936027144665 -20.44491121011676
    vertex -34.82429852493414 134.6390467942924 -27.61187708091552
    vertex -38.43021257503879 136.9531209760063 -14.06368794547824
  endloop
endfacet
facet normal 0.985143 -0.0717479 -0.156031
  outer loop
    vertex 50 106 -6.000000000000012
    vertex 47.81148195308191 93.92855245497623 -14.26694306366402
    vertex 47.55282581475768 106 -21.45084971874738
  endloop
endfacet
facet normal -0.267033 0.960351 0.0801204
  outer loop
    vertex -3.769784999574042 155.7610828013401 -2.897845991063301
    vertex -18.46930387388818 152.2784590800977 -10.14596666480793
    vertex -19.55659611569126 150.7280509213743 4.813926629244209
  endloop
endfacet
facet normal 0.94026 -0.33991 -0.0192911
  outer loop
    vertex 43.29351166211908 81.09191137896961 -8.293244254076743
    vertex 47.81148195308191 93.92855245497623 -14.26694306366402
    vertex 47.62466451913853 92.53856667742552 1.119068923770137
  endloop
endfacet
facet normal 0.704476 -0.0861752 0.704476
  outer loop
    vertex 29.38926261462374 106 34.45084971874731
    vertex 35.01689470484141 92.97845524705323 27.23035445909438
    vertex 40.45084971874743 106 23.38926261462357
  endloop
endfacet
facet normal -0.452647 0.557786 -0.69569
  outer loop
    vertex -29.44371593148213 128.3009487621414 -39.70067175079054
    vertex -22.46334572990185 140.28659584689 -34.63262900697251
    vertex -15.83519602868482 131.5158927311859 -45.97731587867973
  endloop
endfacet
facet normal -0.601085 0.446325 0.662941
  outer loop
    vertex -33.68164548591847 121.712931941883 27.44623337762655
    vertex -24.74379714094752 126.6425587180672 32.23126041106654
    vertex -27.65879838147026 134.7863414054135 24.1054383888386
  endloop
endfacet
facet normal 0.984421 -0.175783 -0.00392752
  outer loop
    vertex 47.62466451913853 92.53856667742552 1.119068923770137
    vertex 47.81148195308191 93.92855245497623 -14.26694306366402
    vertex 50 106 -6.000000000000012
  endloop
endfacet
facet normal -0.363256 0.196679 0.910693
  outer loop
    vertex -12.31603008985272 109.7653597121364 42.31291203254118
    vertex -13.89453227310433 123.5683079285323 38.70231011301241
    vertex -26.03149864386602 113.8093381623108 35.96874212817294
  endloop
endfacet
facet normal -0.745352 -0.634225 0.205447
  outer loop
    vertex -31.85430400409642 71.44769544998431 11.07165975227866
    vertex -42.14925023606931 81.85657860663319 5.854784180217234
    vertex -35.3768382392714 70.72663076281799 -3.933907347225878
  endloop
endfacet
facet normal -0.220014 -0.890023 0.399315
  outer loop
    vertex -18.40584868552961 65.21085684918094 16.30404750684008
    vertex -9.201644612796951 58.37909569804221 6.148218383103083
    vertex -3.973421630575023 62.75185759791978 18.77519120642805
  endloop
endfacet
facet normal -0.310365 -0.942885 0.121003
  outer loop
    vertex -12.38439972555859 57.60221144443554 -8.068986797555281
    vertex -9.201644612796951 58.37909569804221 6.148218383103083
    vertex -23.3909068555591 62.46273515047115 1.574433701375824
  endloop
endfacet
facet normal 0.905482 -0.393106 -0.159904
  outer loop
    vertex 42.45412005411826 84.42170285981761 -21.23235973053782
    vertex 47.81148195308191 93.92855245497623 -14.26694306366402
    vertex 43.29351166211908 81.09191137896961 -8.293244254076743
  endloop
endfacet
facet normal -0.0430083 0.972002 0.231001
  outer loop
    vertex -6.146050290023513 151.9304551675788 12.77816162278772
    vertex 6.432449888989495 153.9405067821834 6.662203516492202
    vertex -3.769784999574042 155.7610828013401 -2.897845991063301
  endloop
endfacet
facet normal 0.238438 0.904053 0.354734
  outer loop
    vertex 18.99800761223244 149.9845857426586 8.297969219867371
    vertex 6.432449888989495 153.9405067821834 6.662203516492202
    vertex 8.150361093042736 148.8981162046992 18.35822736040403
  endloop
endfacet
facet normal -0.12899 -0.988177 0.0828743
  outer loop
    vertex -12.38439972555859 57.60221144443554 -8.068986797555281
    vertex 2.187826338655493 56.25063034130532 -1.504042429644785
    vertex -9.201644612796951 58.37909569804221 6.148218383103083
  endloop
endfacet
facet normal -0.936612 0.290274 -0.196213
  outer loop
    vertex -46.44256605450417 124.3248775531273 -8.699429742724941
    vertex -43.40089732002988 126.3874413179822 -20.16736913904824
    vertex -48.32607517732975 112.6602979468278 -16.96498468829556
  endloop
endfacet
facet normal 0.614015 -0.430695 -0.661429
  outer loop
    vertex 34.37770515224485 92.43879798556354 -39.67888341956963
    vertex 34.45004279602629 80.77365288108875 -32.01587904315661
    vertex 23.55379503688118 80.01494993307514 -41.63700201167321
  endloop
endfacet
facet normal 0.599384 0.663171 0.448266
  outer loop
    vertex 33.78405046045911 131.7418504203422 20.38171850774472
    vertex 31.25766398383384 142.4702910558281 7.887991668233527
    vertex 22.1987315661546 142.2394715398743 20.34230474663243
  endloop
endfacet
facet normal -0.106854 -0.788057 -0.606258
  outer loop
    vertex -0.2807345380140283 63.08295986288454 -31.65246292246394
    vertex -12.78214883954118 66.76439503267856 -34.2344465837763
    vertex -2.747269984976803 71.28482061274278 -41.87908621662759
  endloop
endfacet
facet normal 0.939546 0.342422 1.66992e-05
  outer loop
    vertex 47.48242671257691 119.6847636497054 -13.625378504472
    vertex 43.47434161351838 130.6819340401686 -6.885298428706234
    vertex 47.55282581475772 119.4908613951051 1.531627702520533
  endloop
endfacet
facet normal 0.436831 -0.831266 -0.343768
  outer loop
    vertex 25.48423766022871 69.77086061150618 -29.19489362006357
    vertex 25.26117888586668 63.81705631353422 -15.08141526639437
    vertex 13.60064222710866 61.62138660584479 -24.5892765922264
  endloop
endfacet
facet normal 0.451906 0.0957166 -0.886916
  outer loop
    vertex 15.45084971874736 106 -53.55282581475768
    vertex 23.42651593769015 119.6247212498543 -48.01863065218711
    vertex 29.38926261462369 106 -46.45084971874735
  endloop
endfacet
facet normal -0.458658 0.539991 0.705721
  outer loop
    vertex -27.65879838147026 134.7863414054135 24.1054383888386
    vertex -24.74379714094752 126.6425587180672 32.23126041106654
    vertex -16.29248456727123 135.0919698999472 31.25872024057988
  endloop
endfacet
facet normal 0.038712 -0.821057 0.569532
  outer loop
    vertex -3.973421630575023 62.75185759791978 18.77519120642805
    vertex 7.695213687803014 63.04087222033363 18.39870952959083
    vertex 3.826741004873969 69.45639488727443 27.91048478932134
  endloop
endfacet
facet normal 0.715741 -0.600251 0.356951
  outer loop
    vertex 40.95998478652137 80.06156261500422 6.226083277672821
    vertex 36.92690254333266 82.14853376300015 17.82249833456742
    vertex 29.52919196034265 70.0184547243811 12.25801801258346
  endloop
endfacet
facet normal -0.745859 -0.547669 0.379147
  outer loop
    vertex -37.18740481740814 84.75440550551261 19.80158207401276
    vertex -42.14925023606931 81.85657860663319 5.854784180217234
    vertex -31.85430400409642 71.44769544998431 11.07165975227866
  endloop
endfacet
facet normal -0.421724 -0.449722 -0.787336
  outer loop
    vertex -19.65686141727881 76.17014939562999 -40.98267874452816
    vertex -28.55475238854997 86.47149840325672 -42.10074433324878
    vertex -19.11477189160952 90.80253682839839 -49.6309822108046
  endloop
endfacet
facet normal 0.233909 -0.670003 0.704545
  outer loop
    vertex 13.68206188549011 79.29778420061638 33.99741059074657
    vertex 3.826741004873969 69.45639488727443 27.91048478932134
    vertex 17.37585047781695 69.60052284820748 23.54924505378576
  endloop
endfacet
facet normal 0.562909 0.175226 0.807731
  outer loop
    vertex 33.52948502595757 118.957233419041 28.7546217936345
    vertex 20.44727828595735 116.4285878787553 38.42019096707818
    vertex 29.38926261462374 106 34.45084971874731
  endloop
endfacet
facet normal -0.142246 -0.0930223 -0.985451
  outer loop
    vertex 3.06161699786838e-15 106 -56
    vertex -4.364348088050371 93.34932014931135 -54.1758525101706
    vertex -14.59173611298374 105.180985264596 -53.8164245011297
  endloop
endfacet
facet normal -0.581355 0.29573 -0.758004
  outer loop
    vertex -22.89184555998154 117.5089292290675 -48.9360915181886
    vertex -34.43480279190329 114.6026019740923 -41.2170355929921
    vertex -29.44371593148213 128.3009487621414 -39.70067175079054
  endloop
endfacet
facet normal -0.348737 -0.892956 0.284626
  outer loop
    vertex -23.3909068555591 62.46273515047115 1.574433701375824
    vertex -9.201644612796951 58.37909569804221 6.148218383103083
    vertex -18.40584868552961 65.21085684918094 16.30404750684008
  endloop
endfacet
facet normal 0.0427664 0.919724 0.39023
  outer loop
    vertex 8.150361093042736 148.8981162046992 18.35822736040403
    vertex 6.432449888989495 153.9405067821834 6.662203516492202
    vertex -6.146050290023513 151.9304551675788 12.77816162278772
  endloop
endfacet
facet normal -0.145438 0.922583 -0.357334
  outer loop
    vertex -14.53547280397844 149.5051446392685 -25.90031206491818
    vertex -6.390632891896574 154.5096052789331 -16.29456200734722
    vertex -0.2023517330028909 151.1629352159725 -27.45386530334383
  endloop
endfacet
facet normal -0.0601913 -0.645984 0.760974
  outer loop
    vertex -11.09431543848823 71.61412545435294 28.56194144839585
    vertex 3.826741004873969 69.45639488727443 27.91048478932134
    vertex -2.149679768447887 81.03997013097947 37.27095776419478
  endloop
endfacet
facet normal 0.887084 0.360561 0.288231
  outer loop
    vertex 47.55282581475772 119.4908613951051 1.531627702520533
    vertex 41.12068172363085 131.8517260482226 5.864981875734097
    vertex 42.89802390398972 119.4908613951051 15.85763491210315
  endloop
endfacet
facet normal 0.291167 0.645191 -0.706365
  outer loop
    vertex 15.23336466329323 131.4195690689405 -46.2714552677761
    vertex 8.152704162560106 143.065358903588 -38.5529197490176
    vertex 20.98404236214625 139.9881875929399 -36.0744587697065
  endloop
endfacet
facet normal 0.100131 0.451638 0.886564
  outer loop
    vertex 7.349414540155134 121.3773703068509 41.00555912190531
    vertex 12.568760477912 130.0101713606939 36.01830471686109
    vertex -1.741716492175751 132.4819327926604 36.37538978258375
  endloop
endfacet
facet normal -0.983578 -0.0687769 0.166868
  outer loop
    vertex -48.21085681336853 94.88485067798732 1.222654696871385
    vertex -47.82472816649877 107.1260244583556 8.543983110540411
    vertex -49.88391513282991 107.9905232236325 -3.237242624332896
  endloop
endfacet
facet normal -0.488142 -0.477809 0.730354
  outer loop
    vertex -17.630188091665 83.59849202034941 35.07735273955911
    vertex -28.2026543489408 89.38254623566161 31.79511235681468
    vertex -25.60528798815523 76.14312780865947 24.86966812250482
  endloop
endfacet
facet normal -0.590985 -0.168367 0.788916
  outer loop
    vertex -35.0192223111204 102.7371179266935 29.53881918831888
    vertex -28.2026543489408 89.38254623566161 31.79511235681468
    vertex -22.52168028629945 98.70619555616179 38.04059869957216
  endloop
endfacet
facet normal -0.291865 0.778005 -0.556348
  outer loop
    vertex -7.360572632355838 142.8063647974895 -39.03200691629169
    vertex -22.46334572990185 140.28659584689 -34.63262900697251
    vertex -14.53547280397844 149.5051446392685 -25.90031206491818
  endloop
endfacet
facet normal -0.410769 0.66446 0.624308
  outer loop
    vertex -18.52261778689974 144.939736289602 19.31026605977661
    vertex -27.65879838147026 134.7863414054135 24.1054383888386
    vertex -16.29248456727123 135.0919698999472 31.25872024057988
  endloop
endfacet
facet normal 0.393896 0.376763 0.838389
  outer loop
    vertex 23.31006676396475 130.8482909545065 30.59512568771554
    vertex 12.568760477912 130.0101713606939 36.01830471686109
    vertex 20.44727828595735 116.4285878787553 38.42019096707818
  endloop
endfacet
facet normal 0.788693 0.602522 -0.122195
  outer loop
    vertex 35.43146763665564 141.2744884412314 -6.567068181137317
    vertex 43.47434161351838 130.6819340401686 -6.885298428706234
    vertex 40.29499177479025 132.2467410063968 -19.69022368015634
  endloop
endfacet
facet normal 0.580645 -0.753387 -0.308641
  outer loop
    vertex 35.61686917784932 73.46934477523968 -19.16036096069332
    vertex 25.26117888586668 63.81705631353422 -15.08141526639437
    vertex 25.48423766022871 69.77086061150618 -29.19489362006357
  endloop
endfacet
facet normal -0.160329 -0.870629 -0.46508
  outer loop
    vertex -13.34340683959545 61.02409406379691 -23.29512587785498
    vertex -12.78214883954118 66.76439503267856 -34.2344465837763
    vertex -0.2807345380140283 63.08295986288454 -31.65246292246394
  endloop
endfacet
facet normal 0.897433 0.422504 0.1269
  outer loop
    vertex 47.55282581475772 119.4908613951051 1.531627702520533
    vertex 43.47434161351838 130.6819340401686 -6.885298428706234
    vertex 41.12068172363085 131.8517260482226 5.864981875734097
  endloop
endfacet
facet normal 0.0155874 0.960082 -0.279284
  outer loop
    vertex -0.2023517330028909 151.1629352159725 -27.45386530334383
    vertex -6.390632891896574 154.5096052789331 -16.29456200734722
    vertex 7.055055635883525 154.6864510240878 -14.93620034766922
  endloop
endfacet
facet normal 0.775093 -0.330896 0.538275
  outer loop
    vertex 35.01689470484141 92.97845524705323 27.23035445909438
    vertex 36.92690254333266 82.14853376300015 17.82249833456742
    vertex 43.36333615073416 92.67163659826333 15.02322065977711
  endloop
endfacet
facet normal 0.34439 -0.914783 -0.211111
  outer loop
    vertex 13.60064222710866 61.62138660584479 -24.5892765922264
    vertex 25.26117888586668 63.81705631353422 -15.08141526639437
    vertex 13.98623457707167 58.06337715187808 -8.542721430286845
  endloop
endfacet
facet normal 0.539808 0.57329 -0.616397
  outer loop
    vertex 33.40020776764383 131.5068327985579 -33.0892525121059
    vertex 25.84656690235537 128.7958226585322 -42.22575670269453
    vertex 20.98404236214625 139.9881875929399 -36.0744587697065
  endloop
endfacet
facet normal 0.552998 -0.59908 -0.579047
  outer loop
    vertex 23.55379503688118 80.01494993307514 -41.63700201167321
    vertex 34.45004279602629 80.77365288108875 -32.01587904315661
    vertex 25.48423766022871 69.77086061150618 -29.19489362006357
  endloop
endfacet
facet normal -0.97417 0.136023 0.180252
  outer loop
    vertex -49.88391513282991 107.9905232236325 -3.237242624332896
    vertex -47.82472816649877 107.1260244583556 8.543983110540411
    vertex -46.61611702021086 120.168077074518 5.234020917219475
  endloop
endfacet
facet normal 0.787909 -0.165207 -0.593217
  outer loop
    vertex 40.45084971874739 106 -35.38926261462363
    vertex 43.37998570999268 95.70550736337056 -28.63184175349441
    vertex 34.37770515224485 92.43879798556354 -39.67888341956963
  endloop
endfacet
facet normal 0.888425 0.427014 -0.168405
  outer loop
    vertex 40.29499177479025 132.2467410063968 -19.69022368015634
    vertex 43.47434161351838 130.6819340401686 -6.885298428706234
    vertex 47.48242671257691 119.6847636497054 -13.625378504472
  endloop
endfacet
facet normal -0.153738 -0.0609738 0.986229
  outer loop
    vertex 3.06161699786838e-15 106 44
    vertex -12.31603008985272 109.7653597121364 42.31291203254118
    vertex -7.932822660617392 94.75068250693414 42.06790177005231
  endloop
endfacet
facet normal 0.411463 0.406645 -0.815682
  outer loop
    vertex 15.23336466329323 131.4195690689405 -46.2714552677761
    vertex 25.84656690235537 128.7958226585322 -42.22575670269453
    vertex 23.42651593769015 119.6247212498543 -48.01863065218711
  endloop
endfacet
facet normal -0.0381069 -0.975929 0.214736
  outer loop
    vertex 2.187826338655493 56.25063034130532 -1.504042429644785
    vertex 2.749280773184526 58.85104811349686 10.4139511158773
    vertex -9.201644612796951 58.37909569804221 6.148218383103083
  endloop
endfacet
facet normal 0.715568 0.594896 0.366144
  outer loop
    vertex 41.12068172363085 131.8517260482226 5.864981875734097
    vertex 31.25766398383384 142.4702910558281 7.887991668233527
    vertex 33.78405046045911 131.7418504203422 20.38171850774472
  endloop
endfacet
facet normal -0.925258 0.171603 0.338305
  outer loop
    vertex -46.61611702021086 120.168077074518 5.234020917219475
    vertex -47.82472816649877 107.1260244583556 8.543983110540411
    vertex -42.98212400303071 114.2434876076109 18.17812913050255
  endloop
endfacet
facet normal 0.42932 -0.901593 -0.0530559
  outer loop
    vertex 25.26117888586668 63.81705631353422 -15.08141526639437
    vertex 24.08707708420834 62.44352160706972 -1.241228357485138
    vertex 13.98623457707167 58.06337715187808 -8.542721430286845
  endloop
endfacet
facet normal -0.56872 0.0861924 -0.818003
  outer loop
    vertex -30.8330718822691 101.4928413583892 -45.1025216486377
    vertex -34.43480279190329 114.6026019740923 -41.2170355929921
    vertex -22.89184555998154 117.5089292290675 -48.9360915181886
  endloop
endfacet
facet normal 0.453421 0.050075 0.889889
  outer loop
    vertex 29.38926261462374 106 34.45084971874731
    vertex 20.44727828595735 116.4285878787553 38.42019096707818
    vertex 15.45084971874751 106 41.55282581475763
  endloop
endfacet
facet normal -0.702804 -0.162173 -0.692652
  outer loop
    vertex -37.62672865663455 92.83936288294157 -36.18322251306344
    vertex -38.40079709392592 103.6887513764754 -37.93801672539149
    vertex -30.8330718822691 101.4928413583892 -45.1025216486377
  endloop
endfacet
facet normal 0.513093 0.824005 0.240316
  outer loop
    vertex 31.25766398383384 142.4702910558281 7.887991668233527
    vertex 26.57759136754393 148.1051676107397 -1.440778841581565
    vertex 18.99800761223244 149.9845857426586 8.297969219867371
  endloop
endfacet
facet normal -0.586215 0.580409 -0.565223
  outer loop
    vertex -34.82429852493414 134.6390467942924 -27.61187708091552
    vertex -22.46334572990185 140.28659584689 -34.63262900697251
    vertex -29.44371593148213 128.3009487621414 -39.70067175079054
  endloop
endfacet
facet normal -0.0916598 -0.928619 0.359536
  outer loop
    vertex -9.201644612796951 58.37909569804221 6.148218383103083
    vertex 2.749280773184526 58.85104811349686 10.4139511158773
    vertex -3.973421630575023 62.75185759791978 18.77519120642805
  endloop
endfacet
facet normal 0.671577 -0.414853 0.613906
  outer loop
    vertex 27.17315829097638 81.03997012805905 27.74339012733245
    vertex 36.92690254333266 82.14853376300015 17.82249833456742
    vertex 35.01689470484141 92.97845524705323 27.23035445909438
  endloop
endfacet
facet normal 0.411927 0.569781 -0.711101
  outer loop
    vertex 20.98404236214625 139.9881875929399 -36.0744587697065
    vertex 25.84656690235537 128.7958226585322 -42.22575670269453
    vertex 15.23336466329323 131.4195690689405 -46.2714552677761
  endloop
endfacet
facet normal 0.834389 -0.413369 0.364583
  outer loop
    vertex 43.36333615073416 92.67163659826333 15.02322065977711
    vertex 36.92690254333266 82.14853376300015 17.82249833456742
    vertex 40.95998478652137 80.06156261500422 6.226083277672821
  endloop
endfacet
facet normal -0.206407 0.977141 -0.0509013
  outer loop
    vertex -3.769784999574042 155.7610828013401 -2.897845991063301
    vertex -6.390632891896574 154.5096052789331 -16.29456200734722
    vertex -18.46930387388818 152.2784590800977 -10.14596666480793
  endloop
endfacet
facet normal 0.0997583 -0.593742 0.798448
  outer loop
    vertex -2.149679768447887 81.03997013097947 37.27095776419478
    vertex 3.826741004873969 69.45639488727443 27.91048478932134
    vertex 13.68206188549011 79.29778420061638 33.99741059074657
  endloop
endfacet
facet normal -0.353074 -0.820888 -0.448868
  outer loop
    vertex -24.49582456161865 68.66005573175062 -28.48739960712289
    vertex -12.78214883954118 66.76439503267856 -34.2344465837763
    vertex -13.34340683959545 61.02409406379691 -23.29512587785498
  endloop
endfacet
facet normal 0.0623176 -0.163469 -0.984578
  outer loop
    vertex 9.151836486108168 91.82623164445404 -53.06748537509586
    vertex -4.364348088050371 93.34932014931135 -54.1758525101706
    vertex 3.06161699786838e-15 106 -56
  endloop
endfacet
facet normal -0.783882 0.542874 -0.301358
  outer loop
    vertex -34.82429852493414 134.6390467942924 -27.61187708091552
    vertex -43.40089732002988 126.3874413179822 -20.16736913904824
    vertex -38.43021257503879 136.9531209760063 -14.06368794547824
  endloop
endfacet
facet normal -0.895167 0.00576958 0.445693
  outer loop
    vertex -42.98212400303071 114.2434876076109 18.17812913050255
    vertex -47.82472816649877 107.1260244583556 8.543983110540411
    vertex -44.07419338134819 97.94903321626269 16.1956620002802
  endloop
endfacet
facet normal -0.399769 -0.709 -0.58095
  outer loop
    vertex -19.65686141727881 76.17014939562999 -40.98267874452816
    vertex -12.78214883954118 66.76439503267856 -34.2344465837763
    vertex -24.49582456161865 68.66005573175062 -28.48739960712289
  endloop
endfacet
facet normal -0.430967 -0.306038 0.848886
  outer loop
    vertex -22.52168028629945 98.70619555616179 38.04059869957216
    vertex -28.2026543489408 89.38254623566161 31.79511235681468
    vertex -17.630188091665 83.59849202034941 35.07735273955911
  endloop
endfacet
facet normal 0.202251 -0.771811 0.602829
  outer loop
    vertex 3.826741004873969 69.45639488727443 27.91048478932134
    vertex 7.695213687803014 63.04087222033363 18.39870952959083
    vertex 17.37585047781695 69.60052284820748 23.54924505378576
  endloop
endfacet
facet normal 0.329982 0.581693 0.743468
  outer loop
    vertex 10.11131449768948 139.6878939712007 29.53712310969976
    vertex 12.568760477912 130.0101713606939 36.01830471686109
    vertex 23.31006676396475 130.8482909545065 30.59512568771554
  endloop
endfacet
facet normal -0.535877 -0.533861 -0.654087
  outer loop
    vertex -32.66753785194054 79.57352291908774 -33.10116749854241
    vertex -28.55475238854997 86.47149840325672 -42.10074433324878
    vertex -19.65686141727881 76.17014939562999 -40.98267874452816
  endloop
endfacet
facet normal 0.32491 -0.832235 0.449242
  outer loop
    vertex 17.37585047781695 69.60052284820748 23.54924505378576
    vertex 7.695213687803014 63.04087222033363 18.39870952959083
    vertex 15.35405656292697 60.6662843823394 8.460538557035649
  endloop
endfacet
facet normal -0.427522 0.292058 0.855527
  outer loop
    vertex -13.89453227310433 123.5683079285323 38.70231011301241
    vertex -24.74379714094752 126.6425587180672 32.23126041106654
    vertex -26.03149864386602 113.8093381623108 35.96874212817294
  endloop
endfacet
facet normal 0.890126 -0.0444386 -0.453542
  outer loop
    vertex 47.55282581475768 106 -21.45084971874738
    vertex 43.37998570999268 95.70550736337056 -28.63184175349441
    vertex 40.45084971874739 106 -35.38926261462363
  endloop
endfacet
facet normal 0.292861 0.949153 -0.115503
  outer loop
    vertex 7.055055635883525 154.6864510240878 -14.93620034766922
    vertex 13.63728902777746 154.0416466998106 -3.54550812927823
    vertex 22.26766804608021 150.269710667936 -12.659104832244
  endloop
endfacet
facet normal -0.358645 0.45269 0.816361
  outer loop
    vertex -16.29248456727123 135.0919698999472 31.25872024057988
    vertex -24.74379714094752 126.6425587180672 32.23126041106654
    vertex -13.89453227310433 123.5683079285323 38.70231011301241
  endloop
endfacet
facet normal 0.584262 0.808675 -0.0684339
  outer loop
    vertex 22.26766804608021 150.269710667936 -12.659104832244
    vertex 26.57759136754393 148.1051676107397 -1.440778841581565
    vertex 35.43146763665564 141.2744884412314 -6.567068181137317
  endloop
endfacet
facet normal 0.119234 0.5732 0.810694
  outer loop
    vertex -1.741716492175751 132.4819327926604 36.37538978258375
    vertex 12.568760477912 130.0101713606939 36.01830471686109
    vertex 10.11131449768948 139.6878939712007 29.53712310969976
  endloop
endfacet
facet normal 0.395439 0.908905 0.132363
  outer loop
    vertex 18.99800761223244 149.9845857426586 8.297969219867371
    vertex 26.57759136754393 148.1051676107397 -1.440778841581565
    vertex 13.63728902777746 154.0416466998106 -3.54550812927823
  endloop
endfacet
facet normal 0.306143 0.34414 -0.887606
  outer loop
    vertex 7.531627702411313 119.4908613948652 -53.55282581484309
    vertex 15.23336466329323 131.4195690689405 -46.2714552677761
    vertex 23.42651593769015 119.6247212498543 -48.01863065218711
  endloop
endfacet
facet normal 0.64544 0.398228 -0.651783
  outer loop
    vertex 33.20949387875795 118.4958484818712 -41.22759269429086
    vertex 25.84656690235537 128.7958226585322 -42.22575670269453
    vertex 33.40020776764383 131.5068327985579 -33.0892525121059
  endloop
endfacet
facet normal 0.270408 0.941702 0.200191
  outer loop
    vertex 18.99800761223244 149.9845857426586 8.297969219867371
    vertex 13.63728902777746 154.0416466998106 -3.54550812927823
    vertex 6.432449888989495 153.9405067821834 6.662203516492202
  endloop
endfacet
facet normal -0.219809 -0.351137 -0.910157
  outer loop
    vertex -4.364348088050371 93.34932014931135 -54.1758525101706
    vertex -8.869048505598515 80.71401392806389 -48.21325487302767
    vertex -19.11477189160952 90.80253682839839 -49.6309822108046
  endloop
endfacet
facet normal -0.82575 -0.14699 -0.544547
  outer loop
    vertex -44.87865761323203 102.2013838465763 -27.7135120639946
    vertex -38.40079709392592 103.6887513764754 -37.93801672539149
    vertex -37.62672865663455 92.83936288294157 -36.18322251306344
  endloop
endfacet
facet normal 0.321488 0.188716 -0.927918
  outer loop
    vertex 7.531627702411313 119.4908613948652 -53.55282581484309
    vertex 23.42651593769015 119.6247212498543 -48.01863065218711
    vertex 15.45084971874736 106 -53.55282581475768
  endloop
endfacet
facet normal 0.302198 0.333245 0.893098
  outer loop
    vertex 20.44727828595735 116.4285878787553 38.42019096707818
    vertex 12.568760477912 130.0101713606939 36.01830471686109
    vertex 7.349414540155134 121.3773703068509 41.00555912190531
  endloop
endfacet
facet normal -0.861951 0.486982 -0.141031
  outer loop
    vertex -38.43021257503879 136.9531209760063 -14.06368794547824
    vertex -43.40089732002988 126.3874413179822 -20.16736913904824
    vertex -46.44256605450417 124.3248775531273 -8.699429742724941
  endloop
endfacet
facet normal 0.414741 0.909795 0.0162046
  outer loop
    vertex 13.63728902777746 154.0416466998106 -3.54550812927823
    vertex 26.57759136754393 148.1051676107397 -1.440778841581565
    vertex 22.26766804608021 150.269710667936 -12.659104832244
  endloop
endfacet
facet normal -0.680508 -0.397419 -0.615603
  outer loop
    vertex -37.62672865663455 92.83936288294157 -36.18322251306344
    vertex -28.55475238854997 86.47149840325672 -42.10074433324878
    vertex -32.66753785194054 79.57352291908774 -33.10116749854241
  endloop
endfacet
facet normal -0.682794 0.0287827 -0.730044
  outer loop
    vertex -30.8330718822691 101.4928413583892 -45.1025216486377
    vertex -38.40079709392592 103.6887513764754 -37.93801672539149
    vertex -34.43480279190329 114.6026019740923 -41.2170355929921
  endloop
endfacet
facet normal -0.569079 0.282051 0.772396
  outer loop
    vertex -26.03149864386602 113.8093381623108 35.96874212817294
    vertex -24.74379714094752 126.6425587180672 32.23126041106654
    vertex -33.68164548591847 121.712931941883 27.44623337762655
  endloop
endfacet
facet normal 0.187668 -0.912803 0.362728
  outer loop
    vertex 15.35405656292697 60.6662843823394 8.460538557035649
    vertex 7.695213687803014 63.04087222033363 18.39870952959083
    vertex 2.749280773184526 58.85104811349686 10.4139511158773
  endloop
endfacet
facet normal 0.0365498 -0.894042 0.446489
  outer loop
    vertex 2.749280773184526 58.85104811349686 10.4139511158773
    vertex 7.695213687803014 63.04087222033363 18.39870952959083
    vertex -3.973421630575023 62.75185759791978 18.77519120642805
  endloop
endfacet
facet normal 0.152725 0.216483 0.964267
  outer loop
    vertex 15.45084971874751 106 41.55282581475763
    vertex 20.44727828595735 116.4285878787553 38.42019096707818
    vertex 3.06161699786838e-15 106 44
  endloop
endfacet
facet normal 0.222937 0.0825972 0.971327
  outer loop
    vertex 3.06161699786838e-15 106 44
    vertex 20.44727828595735 116.4285878787553 38.42019096707818
    vertex 7.349414540155134 121.3773703068509 41.00555912190531
  endloop
endfacet
facet normal -0.0796582 0.243727 0.966567
  outer loop
    vertex 7.349414540155134 121.3773703068509 41.00555912190531
    vertex -13.89453227310433 123.5683079285323 38.70231011301241
    vertex -12.31603008985272 109.7653597121364 42.31291203254118
  endloop
endfacet
endsolid Created by Gmsh
