solid Created by Gmsh
facet normal 0.272662 -0.961355 -0.0381085
  outer loop
    vertex -0.9456746830269915 -6.935827232124644 42.17216271678105
    vertex 4.224416683814542 -5.581604041985542 45.00085942280781
    vertex -0.2428641651053905 -6.995785659760286 48.71325395345838
  endloop
endfacet
facet normal 0.358705 -0.930246 0.0772817
  outer loop
    vertex -0.2428641651053905 -6.995785659760286 48.71325395345838
    vertex 4.224416683814542 -5.581604041985542 45.00085942280781
    vertex 5.149245739718184 -4.741863379726807 50.81626544240182
  endloop
endfacet
facet normal -0.303186 0.952535 0.0274868
  outer loop
    vertex 0.9473934774126233 6.935592663857648 54.85693428662501
    vertex 0.4843959199953078 6.983219930139097 48.09947601102601
    vertex -4.593573136284439 5.281958523275807 51.04420844023551
  endloop
endfacet
facet normal -0.895934 0.444183 0.00213934
  outer loop
    vertex -6.995078636059363 0.2624402319498417 5.031101744373834
    vertex -6.99633918092382 0.2263582679519606 11.99474930112822
    vertex -4.427411502461627 5.421994779402732 9.084892928550971
  endloop
endfacet
facet normal 0.258071 -0.966125 0.00160012
  outer loop
    vertex 4.24754359195502 -5.56402493114848 33.02017177893612
    vertex -0.9202581081767767 -6.939245276997701 36.1606891589963
    vertex -0.8953972605577504 -6.942496938838769 30.18778227263541
  endloop
endfacet
facet normal 0.416068 -0.904051 -0.0978712
  outer loop
    vertex 1.55764653769426 -6.824495385272751 54.78531415401866
    vertex -0.2428641651053905 -6.995785659760286 48.71325395345838
    vertex 5.149245739718184 -4.741863379726807 50.81626544240182
  endloop
endfacet
facet normal 0.895627 -0.444806 0
  outer loop
    vertex 7 -1.714505518806294e-15 35.99999999999994
    vertex 7 -1.714505518806294e-15 41.99999999999993
    vertex 4.230069950108653 -5.577320881676773 38.95092108137226
  endloop
endfacet
facet normal -0.359949 -0.929274 -0.0829873
  outer loop
    vertex -0.3129099190635454 -6.993002744354648 11.33625763381414
    vertex -4.917774708062533 -4.98151502263523 8.785162038367558
    vertex 0.9201382817892798 -6.939261166895642 5.386257044914714
  endloop
endfacet
facet normal 0.220803 0.967401 -0.124023
  outer loop
    vertex 4.364428613011122 5.472820377276219 0
    vertex -1.55764653769424 6.824495385272756 0
    vertex 1.331167281752444 6.872262630894705 5.515644386798134
  endloop
endfacet
facet normal -0.449904 -0.892902 -0.0176519
  outer loop
    vertex -0.6154621812002407 -6.972890813967492 18.03025878730426
    vertex -5.332518440525673 -4.534781922149469 14.92758590942857
    vertex -0.3129099190635454 -6.993002744354648 11.33625763381414
  endloop
endfacet
facet normal 0.283518 -0.958917 0.00974823
  outer loop
    vertex 4.369835849494118 -5.468503876607936 21.02181650834713
    vertex -0.7726883948794678 -6.957223055531466 24.14424409014998
    vertex -0.6154621812002407 -6.972890813967492 18.03025878730426
  endloop
endfacet
facet normal 0.898105 -0.439781 0
  outer loop
    vertex 7 -1.714505518806294e-15 12
    vertex 7 -1.714505518806294e-15 17.99999999999999
    vertex 4.292297700366913 -5.529573261240411 15.04081107646321
  endloop
endfacet
facet normal 0.253615 -0.967305 -0.000447834
  outer loop
    vertex 4.224416683814542 -5.581604041985542 45.00085942280781
    vertex -0.9456746830269915 -6.935827232124644 42.17216271678105
    vertex 4.230069950108653 -5.577320881676773 38.95092108137226
  endloop
endfacet
facet normal 0.9007 -0.434441 0
  outer loop
    vertex 7 -1.714505518806294e-15 23.99999999999997
    vertex 7 -1.714505518806294e-15 29.99999999999996
    vertex 4.357651674455491 -5.478217947847206 26.95658961060255
  endloop
endfacet
facet normal -0.0829602 -0.99516 0.0526727
  outer loop
    vertex -0.2428641651053905 -6.995785659760286 48.71325395345838
    vertex 1.55764653769426 -6.824495385272751 54.78531415401866
    vertex -2.245981095903761 -6.629899615894869 52.47110456690559
  endloop
endfacet
facet normal -0.900611 0.434363 0.0151029
  outer loop
    vertex -6.998188538700616 0.1592393695018571 54.98374994393685
    vertex -4.593573136284439 5.281958523275807 51.04420844023551
    vertex -6.98739294606864 0.419928347733531 48.13001307587236
  endloop
endfacet
facet normal 0.256362 -0.96658 -0.00141163
  outer loop
    vertex -0.9202581081767767 -6.939245276997701 36.1606891589963
    vertex 4.24754359195502 -5.56402493114848 33.02017177893612
    vertex 4.230069950108653 -5.577320881676773 38.95092108137226
  endloop
endfacet
facet normal 0.263437 -0.964636 -0.00886704
  outer loop
    vertex 4.24754359195502 -5.56402493114848 33.02017177893612
    vertex -0.8953972605577504 -6.942496938838769 30.18778227263541
    vertex 4.357651674455491 -5.478217947847206 26.95658961060255
  endloop
endfacet
facet normal -0.283565 -0.95681 0.0640685
  outer loop
    vertex 0.9201382817892798 -6.939261166895642 5.386257044914714
    vertex -4.917774708062533 -4.98151502263523 8.785162038367558
    vertex -4.364428613011072 -5.472820377276259 3.897010617212693
  endloop
endfacet
facet normal 0.546657 0.832572 0.0893852
  outer loop
    vertex 4.364428613011122 5.472820377276219 0
    vertex 1.331167281752444 6.872262630894705 5.515644386798134
    vertex 5.612917037292285 4.182721880841947 4.381094627535894
  endloop
endfacet
facet normal -0.270745 0.962354 -0.0239182
  outer loop
    vertex 0.9473934774126233 6.935592663857648 54.85693428662501
    vertex -4.593573136284439 5.281958523275807 51.04420844023551
    vertex -4.364428613011175 5.472820377276176 56.12974877435123
  endloop
endfacet
facet normal 0.895513 -0.445034 0.000521728
  outer loop
    vertex 7 -1.714505518806294e-15 41.99999999999993
    vertex 4.224416683814542 -5.581604041985542 45.00085942280781
    vertex 4.230069950108653 -5.577320881676773 38.95092108137226
  endloop
endfacet
facet normal 0.291079 -0.956565 0.01603
  outer loop
    vertex 4.292297700366913 -5.529573261240411 15.04081107646321
    vertex -0.6154621812002407 -6.972890813967492 18.03025878730426
    vertex -0.3129099190635454 -6.993002744354648 11.33625763381414
  endloop
endfacet
facet normal -0.417536 -0.907872 0.0378362
  outer loop
    vertex -0.3129099190635454 -6.993002744354648 11.33625763381414
    vertex -5.332518440525673 -4.534781922149469 14.92758590942857
    vertex -4.917774708062533 -4.98151502263523 8.785162038367558
  endloop
endfacet
facet normal 0.277512 -0.960722 -0.00100278
  outer loop
    vertex -0.7726883948794678 -6.957223055531466 24.14424409014998
    vertex 4.369835849494118 -5.468503876607936 21.02181650834713
    vertex 4.357651674455491 -5.478217947847206 26.95658961060255
  endloop
endfacet
facet normal 0.895972 -0.444107 0.00164415
  outer loop
    vertex 4.24754359195502 -5.56402493114848 33.02017177893612
    vertex 7 -1.714505518806294e-15 35.99999999999994
    vertex 4.230069950108653 -5.577320881676773 38.95092108137226
  endloop
endfacet
facet normal 0.909303 -0.41161 0.0611995
  outer loop
    vertex 4.95916852095695 -4.940308449960352 9.095652124318562
    vertex 7 -1.714505518806294e-15 12
    vertex 4.292297700366913 -5.529573261240411 15.04081107646321
  endloop
endfacet
facet normal 0.898446 -0.438967 0.0101029
  outer loop
    vertex 7 -1.714505518806294e-15 29.99999999999996
    vertex 4.24754359195502 -5.56402493114848 33.02017177893612
    vertex 4.357651674455491 -5.478217947847206 26.95658961060255
  endloop
endfacet
facet normal 0.899599 -0.436657 -0.00720395
  outer loop
    vertex 7 -1.714505518806294e-15 17.99999999999999
    vertex 4.369835849494118 -5.468503876607936 21.02181650834713
    vertex 4.292297700366913 -5.529573261240411 15.04081107646321
  endloop
endfacet
facet normal 0.285545 -0.958346 0.00608343
  outer loop
    vertex 4.369835849494118 -5.468503876607936 21.02181650834713
    vertex -0.6154621812002407 -6.972890813967492 18.03025878730426
    vertex 4.292297700366913 -5.529573261240411 15.04081107646321
  endloop
endfacet
facet normal 0.90094 -0.433942 0.00113936
  outer loop
    vertex 4.369835849494118 -5.468503876607936 21.02181650834713
    vertex 7 -1.714505518806294e-15 23.99999999999997
    vertex 4.357651674455491 -5.478217947847206 26.95658961060255
  endloop
endfacet
facet normal -0.893204 0.449606 -0.00649171
  outer loop
    vertex -6.995078636059363 0.2624402319498417 5.031101744373834
    vertex -4.427411502461627 5.421994779402732 9.084892928550971
    vertex -4.364428613011174 5.472820377276179 3.939086575993852
  endloop
endfacet
facet normal -0.929198 -0.369577 -0.00208316
  outer loop
    vertex -6.995078636059363 0.2624402319498417 5.031101744373834
    vertex -4.917774708062533 -4.98151502263523 8.785162038367558
    vertex -6.99633918092382 0.2263582679519606 11.99474930112822
  endloop
endfacet
facet normal -0.945838 -0.324343 -0.0138265
  outer loop
    vertex -5.326859560344454 -4.54142788386724 50.92063011355573
    vertex -6.998188538700616 0.1592393695018571 54.98374994393685
    vertex -6.98739294606864 0.419928347733531 48.13001307587236
  endloop
endfacet
facet normal 0.444339 0.895534 -0.0241327
  outer loop
    vertex 0.4843959199953078 6.983219930139097 48.09947601102601
    vertex 0.9473934774126233 6.935592663857648 54.85693428662501
    vertex 5.149245739718439 4.74186337972653 50.81626544240113
  endloop
endfacet
facet normal -0.357763 0.933798 -0.00516761
  outer loop
    vertex -4.835492043100352 5.061424374730218 14.87168606302082
    vertex 0.1730109238091788 6.997861617683126 18.04193801402251
    vertex 0.2527913422345486 6.995433977766587 12.07991230585205
  endloop
endfacet
facet normal -0.897764 0.439826 0.0239447
  outer loop
    vertex -4.593573136284439 5.281958523275807 51.04420844023551
    vertex -6.998188538700616 0.1592393695018571 54.98374994393685
    vertex -4.364428613011175 5.472820377276176 56.12974877435123
  endloop
endfacet
facet normal 0.254823 -0.966986 0.00162721
  outer loop
    vertex -0.9456746830269915 -6.935827232124644 42.17216271678105
    vertex -0.9202581081767767 -6.939245276997701 36.1606891589963
    vertex 4.230069950108653 -5.577320881676773 38.95092108137226
  endloop
endfacet
facet normal 0.220853 -0.96762 -0.122214
  outer loop
    vertex -1.557646537694129 -6.824495385272781 0
    vertex 4.364428613011173 -5.472820377276179 0
    vertex 0.9201382817892798 -6.939261166895642 5.386257044914714
  endloop
endfacet
facet normal 0.273002 -0.961981 0.00788711
  outer loop
    vertex -0.8953972605577504 -6.942496938838769 30.18778227263541
    vertex -0.7726883948794678 -6.957223055531466 24.14424409014998
    vertex 4.357651674455491 -5.478217947847206 26.95658961060255
  endloop
endfacet
facet normal -0.355943 0.93447 -0.00845425
  outer loop
    vertex -4.835492043100352 5.061424374730218 14.87168606302082
    vertex -4.737388566734219 5.153362937711248 20.90351534657616
    vertex 0.1730109238091788 6.997861617683126 18.04193801402251
  endloop
endfacet
facet normal -0.330279 0.943876 -0.00369539
  outer loop
    vertex -4.630320192737098 5.249774748761236 32.91831317603786
    vertex 0.3744702740636825 6.989976538862106 30.09307784232332
    vertex -4.674162326589591 5.21077792125999 26.87617973690914
  endloop
endfacet
facet normal -0.34706 0.9378 0.00893511
  outer loop
    vertex -4.737388566734219 5.153362937711248 20.90351534657616
    vertex 0.3156350851304423 6.992880271607308 24.10461181737177
    vertex 0.1730109238091788 6.997861617683126 18.04193801402251
  endloop
endfacet
facet normal -0.903912 0.426099 -0.0371933
  outer loop
    vertex -6.99633918092382 0.2263582679519606 11.99474930112822
    vertex -4.835492043100352 5.061424374730218 14.87168606302082
    vertex -4.427411502461627 5.421994779402732 9.084892928550971
  endloop
endfacet
facet normal -0.334495 0.94239 0.00374328
  outer loop
    vertex 0.3744702740636825 6.989976538862106 30.09307784232332
    vertex 0.3156350851304423 6.992880271607308 24.10461181737177
    vertex -4.674162326589591 5.21077792125999 26.87617973690914
  endloop
endfacet
facet normal -0.327606 0.94481 -0.00278628
  outer loop
    vertex -4.630320192737098 5.249774748761236 32.91831317603786
    vertex -4.596520062073526 5.279394218937964 38.98792856872567
    vertex 0.3633077879762981 6.990565603096488 36.0669165320699
  endloop
endfacet
facet normal -0.339022 0.940762 -0.00545464
  outer loop
    vertex 0.3156350851304423 6.992880271607308 24.10461181737177
    vertex -4.737388566734219 5.153362937711248 20.90351534657616
    vertex -4.674162326589591 5.21077792125999 26.87617973690914
  endloop
endfacet
facet normal -0.328777 0.944407 -0.000707465
  outer loop
    vertex 0.3744702740636825 6.989976538862106 30.09307784232332
    vertex -4.630320192737098 5.249774748761236 32.91831317603786
    vertex 0.3633077879762981 6.990565603096488 36.0669165320699
  endloop
endfacet
facet normal 0.342039 -0.938097 -0.0546145
  outer loop
    vertex 4.95916852095695 -4.940308449960352 9.095652124318562
    vertex 4.292297700366913 -5.529573261240411 15.04081107646321
    vertex -0.3129099190635454 -6.993002744354648 11.33625763381414
  endloop
endfacet
facet normal 0.407967 0.912954 -0.00884729
  outer loop
    vertex 0.3156350851304423 6.992880271607308 24.10461181737177
    vertex 5.050208403739267 4.847204872790222 21.01291856556478
    vertex 0.1730109238091788 6.997861617683126 18.04193801402251
  endloop
endfacet
facet normal 0.413836 0.91035 0.00194735
  outer loop
    vertex 5.07192021942861 4.824481867283909 27.02148557804929
    vertex 5.050208403739267 4.847204872790222 21.01291856556478
    vertex 0.3156350851304423 6.992880271607308 24.10461181737177
  endloop
endfacet
facet normal 0.405642 0.914018 0.0050559
  outer loop
    vertex 0.1730109238091788 6.997861617683126 18.04193801402251
    vertex 5.045606580130022 4.851994872065368 15.04179046313068
    vertex 0.2527913422345486 6.995433977766587 12.07991230585205
  endloop
endfacet
facet normal -0.895197 0.445655 0.00361929
  outer loop
    vertex -6.977697435462229 0.5583354718660031 29.98926694510706
    vertex -4.630320192737098 5.249774748761236 32.91831317603786
    vertex -4.674162326589591 5.21077792125999 26.87617973690914
  endloop
endfacet
facet normal 0.40326 0.915085 0.000423292
  outer loop
    vertex 5.050208403739267 4.847204872790222 21.01291856556478
    vertex 5.045606580130022 4.851994872065368 15.04179046313068
    vertex 0.1730109238091788 6.997861617683126 18.04193801402251
  endloop
endfacet
facet normal 0.418955 0.908007 0.000693308
  outer loop
    vertex 5.078923107334181 4.817109098804687 33.01107446348991
    vertex 0.3744702740636825 6.989976538862106 30.09307784232332
    vertex 0.3633077879762981 6.990565603096488 36.0669165320699
  endloop
endfacet
facet normal -0.897403 0.441186 -0.00469246
  outer loop
    vertex -6.983315989902655 0.4830090942931606 23.98158327403811
    vertex -6.977697435462229 0.5583354718660031 29.98926694510706
    vertex -4.674162326589591 5.21077792125999 26.87617973690914
  endloop
endfacet
facet normal -0.479268 -0.877636 -0.00759263
  outer loop
    vertex -5.39791698009337 -4.456735607596627 27.06935770390299
    vertex -0.7726883948794678 -6.957223055531466 24.14424409014998
    vertex -0.8953972605577504 -6.942496938838769 30.18778227263541
  endloop
endfacet
facet normal 0.411642 0.911322 -0.00660501
  outer loop
    vertex 5.045606580130022 4.851994872065368 15.04179046313068
    vertex 5.116500045937608 4.777177752598333 9.137222283606846
    vertex 0.2527913422345486 6.995433977766587 12.07991230585205
  endloop
endfacet
facet normal -0.890527 0.454923 0.00273911
  outer loop
    vertex -6.969566100809525 0.6520340224610341 36.00500736286044
    vertex -4.596520062073526 5.279394218937964 38.98792856872567
    vertex -4.630320192737098 5.249774748761236 32.91831317603786
  endloop
endfacet
facet normal 0.928168 0.372157 -0.0019465
  outer loop
    vertex 7 -1.714505518806294e-15 23.99999999999997
    vertex 5.050208403739267 4.847204872790222 21.01291856556478
    vertex 5.07192021942861 4.824481867283909 27.02148557804929
  endloop
endfacet
facet normal -0.935883 -0.350285 -0.037716
  outer loop
    vertex -4.917774708062533 -4.98151502263523 8.785162038367558
    vertex -5.332518440525673 -4.534781922149469 14.92758590942857
    vertex -6.99633918092382 0.2263582679519606 11.99474930112822
  endloop
endfacet
facet normal 0.442079 0.895237 0.0558265
  outer loop
    vertex 0.2527913422345486 6.995433977766587 12.07991230585205
    vertex 5.116500045937608 4.777177752598333 9.137222283606846
    vertex 1.331167281752444 6.872262630894705 5.515644386798134
  endloop
endfacet
facet normal 0.22068 0.966861 0.128372
  outer loop
    vertex -1.55764653769424 6.824495385272756 60
    vertex 4.364428613011122 5.472820377276219 60
    vertex 0.9473934774126233 6.935592663857648 54.85693428662501
  endloop
endfacet
facet normal -0.990634 -1.07187e-14 0.136542
  outer loop
    vertex -6.306782075316895 -3.037186173822987 60
    vertex -6.306782075316961 3.037186173822852 60
    vertex -6.998188538700616 0.1592393695018571 54.98374994393685
  endloop
endfacet
facet normal 0.22058 -0.966426 0.131776
  outer loop
    vertex 4.364428613011173 -5.472820377276179 60
    vertex -1.557646537694129 -6.824495385272781 60
    vertex 1.55764653769426 -6.824495385272751 54.78531415401866
  endloop
endfacet
facet normal -0.990771 -1.07202e-14 -0.135546
  outer loop
    vertex -6.306782075316961 3.037186173822852 0
    vertex -6.306782075316895 -3.037186173822987 0
    vertex -6.995078636059363 0.2624402319498417 5.031101744373834
  endloop
endfacet
facet normal -0.498554 -0.866857 -0.00161501
  outer loop
    vertex -5.527521013481541 -4.294940214429066 39.09232288914859
    vertex -0.9202581081767767 -6.939245276997701 36.1606891589963
    vertex -0.9456746830269915 -6.935827232124644 42.17216271678105
  endloop
endfacet
facet normal -0.325349 0.945587 -0.0035132
  outer loop
    vertex -4.553411827622008 5.316619295009942 45.01500273870543
    vertex 0.346621143024338 6.99141286030288 42.00956880488484
    vertex -4.596520062073526 5.279394218937964 38.98792856872567
  endloop
endfacet
facet normal 0.418225 0.908343 -0.00067325
  outer loop
    vertex 5.071428571430076 4.824998678226006 38.99999999999994
    vertex 5.078923107334181 4.817109098804687 33.01107446348991
    vertex 0.3633077879762981 6.990565603096488 36.0669165320699
  endloop
endfacet
facet normal -0.494529 -0.869135 0.00676465
  outer loop
    vertex -5.527521013481541 -4.294940214429066 39.09232288914859
    vertex -5.460441499271909 -4.379906235643539 33.07957595048482
    vertex -0.9202581081767767 -6.939245276997701 36.1606891589963
  endloop
endfacet
facet normal -0.472732 -0.881187 0.00577823
  outer loop
    vertex -5.39791698009337 -4.456735607596627 27.06935770390299
    vertex -5.338051134201349 -4.528267890557237 21.05838034284375
    vertex -0.7726883948794678 -6.957223055531466 24.14424409014998
  endloop
endfacet
facet normal -0.956899 -0.290364 0.005816
  outer loop
    vertex -5.460441499271909 -4.379906235643539 33.07957595048482
    vertex -6.969566100809525 0.6520340224610341 36.00500736286044
    vertex -6.977697435462229 0.5583354718660031 29.98926694510706
  endloop
endfacet
facet normal -0.958892 -0.283692 -0.00668877
  outer loop
    vertex -5.527521013481541 -4.294940214429066 39.09232288914859
    vertex -6.969566100809525 0.6520340224610341 36.00500736286044
    vertex -5.460441499271909 -4.379906235643539 33.07957595048482
  endloop
endfacet
facet normal -0.89283 0.450356 -0.00580774
  outer loop
    vertex -6.977697435462229 0.5583354718660031 29.98926694510706
    vertex -6.969566100809525 0.6520340224610341 36.00500736286044
    vertex -4.630320192737098 5.249774748761236 32.91831317603786
  endloop
endfacet
facet normal -0.954797 -0.297196 -0.00613369
  outer loop
    vertex -5.460441499271909 -4.379906235643539 33.07957595048482
    vertex -6.977697435462229 0.5583354718660031 29.98926694510706
    vertex -5.39791698009337 -4.456735607596627 27.06935770390299
  endloop
endfacet
facet normal 0.927755 0.37319 0
  outer loop
    vertex 7 -1.714505518806294e-15 23.99999999999997
    vertex 7 -1.714505518806294e-15 17.99999999999999
    vertex 5.050208403739267 4.847204872790222 21.01291856556478
  endloop
endfacet
facet normal 0.896324 -0.443401 0
  outer loop
    vertex 7 -1.714505518806294e-15 29.99999999999996
    vertex 7 -1.714505518806294e-15 35.99999999999994
    vertex 4.24754359195502 -5.56402493114848 33.02017177893612
  endloop
endfacet
facet normal -0.903086 0.429396 -0.00741907
  outer loop
    vertex -6.990533959159324 0.363916152211288 17.96741804569949
    vertex -6.983315989902655 0.4830090942931606 23.98158327403811
    vertex -4.737388566734219 5.153362937711248 20.90351534657616
  endloop
endfacet
facet normal -0.906795 0.421489 0.00832395
  outer loop
    vertex -6.990533959159324 0.363916152211288 17.96741804569949
    vertex -4.737388566734219 5.153362937711248 20.90351534657616
    vertex -4.835492043100352 5.061424374730218 14.87168606302082
  endloop
endfacet
facet normal -0.502697 -0.864438 0.00662251
  outer loop
    vertex -5.590893955680778 -4.212114050727039 45.09317601230732
    vertex -5.527521013481541 -4.294940214429066 39.09232288914859
    vertex -0.9456746830269915 -6.935827232124644 42.17216271678105
  endloop
endfacet
facet normal 0.901183 -0.433438 0
  outer loop
    vertex 7 -1.714505518806294e-15 17.99999999999999
    vertex 7 -1.714505518806294e-15 23.99999999999997
    vertex 4.369835849494118 -5.468503876607936 21.02181650834713
  endloop
endfacet
facet normal 0.928571 0.371154 0
  outer loop
    vertex 7 -1.714505518806294e-15 41.99999999999993
    vertex 7 -1.714505518806294e-15 35.99999999999994
    vertex 5.071428571430076 4.824998678226006 38.99999999999994
  endloop
endfacet
facet normal -0.953001 -0.302932 0.00468954
  outer loop
    vertex -5.39791698009337 -4.456735607596627 27.06935770390299
    vertex -6.977697435462229 0.5583354718660031 29.98926694510706
    vertex -6.983315989902655 0.4830090942931606 23.98158327403811
  endloop
endfacet
facet normal -0.951086 -0.308872 -0.0057966
  outer loop
    vertex -5.39791698009337 -4.456735607596627 27.06935770390299
    vertex -6.983315989902655 0.4830090942931606 23.98158327403811
    vertex -5.338051134201349 -4.528267890557237 21.05838034284375
  endloop
endfacet
facet normal -0.318746 0.947802 0.00848625
  outer loop
    vertex 0.4843959199953078 6.983219930139097 48.09947601102601
    vertex 0.346621143024338 6.99141286030288 42.00956880488484
    vertex -4.553411827622008 5.316619295009942 45.01500273870543
  endloop
endfacet
facet normal 0.928956 0.370133 0.00646357
  outer loop
    vertex 7 -1.714505518806294e-15 12
    vertex 5.116500045937608 4.777177752598333 9.137222283606846
    vertex 5.045606580130022 4.851994872065368 15.04179046313068
  endloop
endfacet
facet normal -0.947313 -0.320309 -0.000514565
  outer loop
    vertex -5.338051134201349 -4.528267890557237 21.05838034284375
    vertex -6.990533959159324 0.363916152211288 17.96741804569949
    vertex -5.332518440525673 -4.534781922149469 14.92758590942857
  endloop
endfacet
facet normal 0.416677 0.909047 -0.00365296
  outer loop
    vertex 0.3744702740636825 6.989976538862106 30.09307784232332
    vertex 5.07192021942861 4.824481867283909 27.02148557804929
    vertex 0.3156350851304423 6.992880271607308 24.10461181737177
  endloop
endfacet
facet normal -0.484559 -0.873649 0.0440554
  outer loop
    vertex -5.590893955680778 -4.212114050727039 45.09317601230732
    vertex -0.9456746830269915 -6.935827232124644 42.17216271678105
    vertex -0.2428641651053905 -6.995785659760286 48.71325395345838
  endloop
endfacet
facet normal -0.948793 -0.315813 0.00739245
  outer loop
    vertex -5.338051134201349 -4.528267890557237 21.05838034284375
    vertex -6.983315989902655 0.4830090942931606 23.98158327403811
    vertex -6.990533959159324 0.363916152211288 17.96741804569949
  endloop
endfacet
facet normal -0.89982 0.436229 0.00533199
  outer loop
    vertex -4.737388566734219 5.153362937711248 20.90351534657616
    vertex -6.983315989902655 0.4830090942931606 23.98158327403811
    vertex -4.674162326589591 5.21077792125999 26.87617973690914
  endloop
endfacet
facet normal -0.315925 0.948778 0.00334993
  outer loop
    vertex 0.4843959199953078 6.983219930139097 48.09947601102601
    vertex -4.553411827622008 5.316619295009942 45.01500273870543
    vertex -4.593573136284439 5.281958523275807 51.04420844023551
  endloop
endfacet
facet normal 0.928751 0.370704 0
  outer loop
    vertex 7 -1.714505518806294e-15 47.99999999999991
    vertex 7 -1.714505518806294e-15 41.99999999999993
    vertex 5.076096954889554 4.820087105495191 44.98240696340891
  endloop
endfacet
facet normal 0.895402 -0.445259 0
  outer loop
    vertex 7 -1.714505518806294e-15 41.99999999999993
    vertex 7 -1.714505518806294e-15 47.99999999999991
    vertex 4.224416683814542 -5.581604041985542 45.00085942280781
  endloop
endfacet
facet normal -0.96318 -0.268779 -0.00646202
  outer loop
    vertex -6.958339444157697 0.7625694590521976 41.99911152358413
    vertex -5.527521013481541 -4.294940214429066 39.09232288914859
    vertex -5.590893955680778 -4.212114050727039 45.09317601230732
  endloop
endfacet
facet normal 0.92859 0.371106 0
  outer loop
    vertex 7 -1.714505518806294e-15 29.99999999999996
    vertex 7 -1.714505518806294e-15 23.99999999999997
    vertex 5.07192021942861 4.824481867283909 27.02148557804929
  endloop
endfacet
facet normal -0.486547 -0.873633 0.0061062
  outer loop
    vertex -5.460441499271909 -4.379906235643539 33.07957595048482
    vertex -5.39791698009337 -4.456735607596627 27.06935770390299
    vertex -0.8953972605577504 -6.942496938838769 30.18778227263541
  endloop
endfacet
facet normal 0.930303 0.366791 0
  outer loop
    vertex 7 -1.714505518806294e-15 12
    vertex 7 -1.714505518806294e-15 6.000000000000001
    vertex 5.116500045937608 4.777177752598333 9.137222283606846
  endloop
endfacet
facet normal 0.924244 -0.381803 0
  outer loop
    vertex 7 -1.714505518806294e-15 6.000000000000001
    vertex 7 -1.714505518806294e-15 12
    vertex 4.95916852095695 -4.940308449960352 9.095652124318562
  endloop
endfacet
facet normal 0.421533 0.906775 -0.00831661
  outer loop
    vertex 5.076096954889554 4.820087105495191 44.98240696340891
    vertex 0.346621143024338 6.99141286030288 42.00956880488484
    vertex 0.4843959199953078 6.983219930139097 48.09947601102601
  endloop
endfacet
facet normal 0.417016 0.908899 0.00042079
  outer loop
    vertex 5.076096954889554 4.820087105495191 44.98240696340891
    vertex 5.071428571430076 4.824998678226006 38.99999999999994
    vertex 0.346621143024338 6.99141286030288 42.00956880488484
  endloop
endfacet
facet normal -0.961167 -0.275882 0.00688767
  outer loop
    vertex -6.958339444157697 0.7625694590521976 41.99911152358413
    vertex -6.969566100809525 0.6520340224610341 36.00500736286044
    vertex -5.527521013481541 -4.294940214429066 39.09232288914859
  endloop
endfacet
facet normal 0.928661 0.370928 -0.000420149
  outer loop
    vertex 5.076096954889554 4.820087105495191 44.98240696340891
    vertex 7 -1.714505518806294e-15 41.99999999999993
    vertex 5.071428571430076 4.824998678226006 38.99999999999994
  endloop
endfacet
facet normal 0.927578 0.37363 0
  outer loop
    vertex 7 -1.714505518806294e-15 17.99999999999999
    vertex 7 -1.714505518806294e-15 12
    vertex 5.045606580130022 4.851994872065368 15.04179046313068
  endloop
endfacet
facet normal 0.418989 0.907991 0.000627802
  outer loop
    vertex 5.078923107334181 4.817109098804687 33.01107446348991
    vertex 5.07192021942861 4.824481867283909 27.02148557804929
    vertex 0.3744702740636825 6.989976538862106 30.09307784232332
  endloop
endfacet
facet normal -0.459438 -0.88821 0.000529115
  outer loop
    vertex -5.338051134201349 -4.528267890557237 21.05838034284375
    vertex -5.332518440525673 -4.534781922149469 14.92758590942857
    vertex -0.6154621812002407 -6.972890813967492 18.03025878730426
  endloop
endfacet
facet normal -0.490253 -0.871579 -0.00156608
  outer loop
    vertex -0.9202581081767767 -6.939245276997701 36.1606891589963
    vertex -5.460441499271909 -4.379906235643539 33.07957595048482
    vertex -0.8953972605577504 -6.942496938838769 30.18778227263541
  endloop
endfacet
facet normal -0.464571 -0.885483 -0.00967768
  outer loop
    vertex -0.7726883948794678 -6.957223055531466 24.14424409014998
    vertex -5.338051134201349 -4.528267890557237 21.05838034284375
    vertex -0.6154621812002407 -6.972890813967492 18.03025878730426
  endloop
endfacet
facet normal 0.927665 0.373412 -0.000415384
  outer loop
    vertex 5.050208403739267 4.847204872790222 21.01291856556478
    vertex 7 -1.714505518806294e-15 17.99999999999999
    vertex 5.045606580130022 4.851994872065368 15.04179046313068
  endloop
endfacet
facet normal -0.326695 0.945129 -0.00105209
  outer loop
    vertex -4.596520062073526 5.279394218937964 38.98792856872567
    vertex 0.346621143024338 6.99141286030288 42.00956880488484
    vertex 0.3633077879762981 6.990565603096488 36.0669165320699
  endloop
endfacet
facet normal -0.911022 0.412269 -0.00860958
  outer loop
    vertex -6.990533959159324 0.363916152211288 17.96741804569949
    vertex -4.835492043100352 5.061424374730218 14.87168606302082
    vertex -6.99633918092382 0.2263582679519606 11.99474930112822
  endloop
endfacet
facet normal -0.960792 -0.276548 -0.0200086
  outer loop
    vertex -6.958339444157697 0.7625694590521976 41.99911152358413
    vertex -5.590893955680778 -4.212114050727039 45.09317601230732
    vertex -6.98739294606864 0.419928347733531 48.13001307587236
  endloop
endfacet
facet normal 0.928716 0.370792 0.000673726
  outer loop
    vertex 7 -1.714505518806294e-15 35.99999999999994
    vertex 5.078923107334181 4.817109098804687 33.01107446348991
    vertex 5.071428571430076 4.824998678226006 38.99999999999994
  endloop
endfacet
facet normal -0.945586 -0.325262 0.00841027
  outer loop
    vertex -5.332518440525673 -4.534781922149469 14.92758590942857
    vertex -6.990533959159324 0.363916152211288 17.96741804569949
    vertex -6.99633918092382 0.2263582679519606 11.99474930112822
  endloop
endfacet
facet normal -0.888003 0.459787 -0.00681561
  outer loop
    vertex -6.958339444157697 0.7625694590521976 41.99911152358413
    vertex -4.596520062073526 5.279394218937964 38.98792856872567
    vertex -6.969566100809525 0.6520340224610341 36.00500736286044
  endloop
endfacet
facet normal 0.928724 0.370771 -0.000629449
  outer loop
    vertex 5.078923107334181 4.817109098804687 33.01107446348991
    vertex 7 -1.714505518806294e-15 29.99999999999996
    vertex 5.07192021942861 4.824481867283909 27.02148557804929
  endloop
endfacet
facet normal 0.417342 0.908749 0.00104231
  outer loop
    vertex 0.346621143024338 6.99141286030288 42.00956880488484
    vertex 5.071428571430076 4.824998678226006 38.99999999999994
    vertex 0.3633077879762981 6.990565603096488 36.0669165320699
  endloop
endfacet
facet normal -0.95228 -0.30412 0.0259605
  outer loop
    vertex -5.590893955680778 -4.212114050727039 45.09317601230732
    vertex -5.326859560344454 -4.54142788386724 50.92063011355573
    vertex -6.98739294606864 0.419928347733531 48.13001307587236
  endloop
endfacet
facet normal -0.885211 0.465177 0.00345833
  outer loop
    vertex -4.553411827622008 5.316619295009942 45.01500273870543
    vertex -4.596520062073526 5.279394218937964 38.98792856872567
    vertex -6.958339444157697 0.7625694590521976 41.99911152358413
  endloop
endfacet
facet normal 0.93156 0.363589 0
  outer loop
    vertex 7 -1.714505518806294e-15 53.99999999999994
    vertex 7 -1.714505518806294e-15 47.99999999999991
    vertex 5.149245739718439 4.74186337972653 50.81626544240113
  endloop
endfacet
facet normal 0.92886 0.370432 0
  outer loop
    vertex 7 -1.714505518806294e-15 35.99999999999994
    vertex 7 -1.714505518806294e-15 29.99999999999996
    vertex 5.078923107334181 4.817109098804687 33.01107446348991
  endloop
endfacet
facet normal 0.93156 -0.363589 0
  outer loop
    vertex 7 -1.714505518806294e-15 47.99999999999991
    vertex 7 -1.714505518806294e-15 53.99999999999994
    vertex 5.149245739718184 -4.741863379726807 50.81626544240182
  endloop
endfacet
facet normal 0.429891 0.902856 0.00671575
  outer loop
    vertex 5.076096954889554 4.820087105495191 44.98240696340891
    vertex 0.4843959199953078 6.983219930139097 48.09947601102601
    vertex 5.149245739718439 4.74186337972653 50.81626544240113
  endloop
endfacet
facet normal 0.388366 -0.918674 0.0721853
  outer loop
    vertex 4.95916852095695 -4.940308449960352 9.095652124318562
    vertex -0.3129099190635454 -6.993002744354648 11.33625763381414
    vertex 0.9201382817892798 -6.939261166895642 5.386257044914714
  endloop
endfacet
facet normal -0.33837 0.940372 0.0347322
  outer loop
    vertex -4.835492043100352 5.061424374730218 14.87168606302082
    vertex 0.2527913422345486 6.995433977766587 12.07991230585205
    vertex -4.427411502461627 5.421994779402732 9.084892928550971
  endloop
endfacet
facet normal -0.445224 -0.894903 -0.0303991
  outer loop
    vertex -5.590893955680778 -4.212114050727039 45.09317601230732
    vertex -0.2428641651053905 -6.995785659760286 48.71325395345838
    vertex -5.326859560344454 -4.54142788386724 50.92063011355573
  endloop
endfacet
facet normal -0.889817 0.455822 0.021258
  outer loop
    vertex -4.553411827622008 5.316619295009942 45.01500273870543
    vertex -6.958339444157697 0.7625694590521976 41.99911152358413
    vertex -6.98739294606864 0.419928347733531 48.13001307587236
  endloop
endfacet
facet normal -0.896336 0.443362 -0.00342181
  outer loop
    vertex -4.593573136284439 5.281958523275807 51.04420844023551
    vertex -4.553411827622008 5.316619295009942 45.01500273870543
    vertex -6.98739294606864 0.419928347733531 48.13001307587236
  endloop
endfacet
facet normal 0.930176 0.367052 -0.00674151
  outer loop
    vertex 7 -1.714505518806294e-15 47.99999999999991
    vertex 5.076096954889554 4.820087105495191 44.98240696340891
    vertex 5.149245739718439 4.74186337972653 50.81626544240113
  endloop
endfacet
facet normal 0.909741 -0.406166 -0.0860269
  outer loop
    vertex 4.224416683814542 -5.581604041985542 45.00085942280781
    vertex 7 -1.714505518806294e-15 47.99999999999991
    vertex 5.149245739718184 -4.741863379726807 50.81626544240182
  endloop
endfacet
facet normal -0.280904 0.957592 -0.064115
  outer loop
    vertex 0.2527913422345486 6.995433977766587 12.07991230585205
    vertex 1.331167281752444 6.872262630894705 5.515644386798134
    vertex -4.427411502461627 5.421994779402732 9.084892928550971
  endloop
endfacet
facet normal 0.89434 0.430691 0.121081
  outer loop
    vertex 4.364428613011122 5.472820377276219 60
    vertex 7 -1.71450551880629e-15 60
    vertex 5.553699776994748 4.26103494318088 55.52607859722027
  endloop
endfacet
facet normal 0.89434 -0.430691 0.121081
  outer loop
    vertex 7 -1.71450551880629e-15 60
    vertex 4.364428613011173 -5.472820377276179 60
    vertex 5.553699776994989 -4.261034943180565 55.52607859722063
  endloop
endfacet
facet normal -0.911793 -0.405878 -0.0624218
  outer loop
    vertex -4.917774708062533 -4.98151502263523 8.785162038367558
    vertex -6.995078636059363 0.2624402319498417 5.031101744373834
    vertex -4.364428613011072 -5.472820377276259 3.897010617212693
  endloop
endfacet
facet normal 0.946939 0.321414 -2.42987e-31
  outer loop
    vertex 7 -1.71450551880629e-15 60
    vertex 7 -1.714505518806294e-15 53.99999999999994
    vertex 5.553699776994748 4.26103494318088 55.52607859722027
  endloop
endfacet
facet normal 0.946939 -0.321414 2.42987e-31
  outer loop
    vertex 7 -1.714505518806294e-15 53.99999999999994
    vertex 7 -1.71450551880629e-15 60
    vertex 5.553699776994989 -4.261034943180565 55.52607859722063
  endloop
endfacet
facet normal -0.883955 -0.439899 -0.158471
  outer loop
    vertex -6.306782075316895 -3.037186173822987 60
    vertex -6.998188538700616 0.1592393695018571 54.98374994393685
    vertex -4.364428613011072 -5.472820377276259 55.92658947524426
  endloop
endfacet
facet normal -0.24703 -0.957704 -0.147578
  outer loop
    vertex 1.55764653769426 -6.824495385272751 54.78531415401866
    vertex -1.557646537694129 -6.824495385272781 60
    vertex -4.364428613011072 -5.472820377276259 55.92658947524426
  endloop
endfacet
facet normal -0.871848 0.469449 0.139634
  outer loop
    vertex -6.306782075316961 3.037186173822852 0
    vertex -6.995078636059363 0.2624402319498417 5.031101744373834
    vertex -4.364428613011174 5.472820377276179 3.939086575993852
  endloop
endfacet
facet normal -0.883374 -0.438105 0.166476
  outer loop
    vertex -6.995078636059363 0.2624402319498417 5.031101744373834
    vertex -6.306782075316895 -3.037186173822987 0
    vertex -4.364428613011072 -5.472820377276259 3.897010617212693
  endloop
endfacet
facet normal -0.290379 0.949239 -0.120931
  outer loop
    vertex -1.55764653769424 6.824495385272756 60
    vertex 0.9473934774126233 6.935592663857648 54.85693428662501
    vertex -4.364428613011175 5.472820377276176 56.12974877435123
  endloop
endfacet
facet normal -0.873468 0.464453 -0.146075
  outer loop
    vertex -6.998188538700616 0.1592393695018571 54.98374994393685
    vertex -6.306782075316961 3.037186173822852 60
    vertex -4.364428613011175 5.472820377276176 56.12974877435123
  endloop
endfacet
facet normal 0.519952 -0.848134 0.101578
  outer loop
    vertex 0.9201382817892798 -6.939261166895642 5.386257044914714
    vertex 4.364428613011173 -5.472820377276179 0
    vertex 5.612917037292297 -4.182721880841932 4.381094627535902
  endloop
endfacet
facet normal 0.893566 0.430319 -0.127925
  outer loop
    vertex 7 -1.71450551880629e-15 0
    vertex 4.364428613011122 5.472820377276219 0
    vertex 5.612917037292285 4.182721880841947 4.381094627535894
  endloop
endfacet
facet normal 0.893566 -0.430319 -0.127925
  outer loop
    vertex 4.364428613011173 -5.472820377276179 0
    vertex 7 -1.71450551880629e-15 0
    vertex 5.612917037292297 -4.182721880841932 4.381094627535902
  endloop
endfacet
facet normal -0.907664 -0.407951 0.0986028
  outer loop
    vertex -6.998188538700616 0.1592393695018571 54.98374994393685
    vertex -5.326859560344454 -4.54142788386724 50.92063011355573
    vertex -4.364428613011072 -5.472820377276259 55.92658947524426
  endloop
endfacet
facet normal 0.949169 0.314766 2.3796e-31
  outer loop
    vertex 7 -1.714505518806294e-15 6.000000000000001
    vertex 7 -1.71450551880629e-15 0
    vertex 5.612917037292285 4.182721880841947 4.381094627535894
  endloop
endfacet
facet normal 0.949169 -0.314766 -2.3796e-31
  outer loop
    vertex 7 -1.71450551880629e-15 0
    vertex 7 -1.714505518806294e-15 6.000000000000001
    vertex 5.612917037292297 -4.182721880841932 4.381094627535902
  endloop
endfacet
facet normal 0.521261 0.851808 -0.0520591
  outer loop
    vertex 1.331167281752444 6.872262630894705 5.515644386798134
    vertex 5.116500045937608 4.777177752598333 9.137222283606846
    vertex 5.612917037292285 4.182721880841947 4.381094627535894
  endloop
endfacet
facet normal -0.271236 0.953167 0.133805
  outer loop
    vertex 1.331167281752444 6.872262630894705 5.515644386798134
    vertex -1.55764653769424 6.824495385272756 0
    vertex -4.364428613011174 5.472820377276179 3.939086575993852
  endloop
endfacet
facet normal -0.295772 -0.948207 0.115858
  outer loop
    vertex -1.557646537694129 -6.824495385272781 0
    vertex 0.9201382817892798 -6.939261166895642 5.386257044914714
    vertex -4.364428613011072 -5.472820377276259 3.897010617212693
  endloop
endfacet
facet normal -0.614653 -0.77075 0.167769
  outer loop
    vertex -1.557646537694129 -6.824495385272781 60
    vertex -6.306782075316895 -3.037186173822987 60
    vertex -4.364428613011072 -5.472820377276259 55.92658947524426
  endloop
endfacet
facet normal -0.240338 0.970666 0.00664571
  outer loop
    vertex -4.427411502461627 5.421994779402732 9.084892928550971
    vertex 1.331167281752444 6.872262630894705 5.515644386798134
    vertex -4.364428613011174 5.472820377276179 3.939086575993852
  endloop
endfacet
facet normal 0.493901 -0.866633 -0.0707728
  outer loop
    vertex 4.95916852095695 -4.940308449960352 9.095652124318562
    vertex 0.9201382817892798 -6.939261166895642 5.386257044914714
    vertex 5.612917037292297 -4.182721880841932 4.381094627535902
  endloop
endfacet
facet normal -0.614054 0.769999 -0.173321
  outer loop
    vertex -1.55764653769424 6.824495385272756 0
    vertex -6.306782075316961 3.037186173822852 0
    vertex -4.364428613011174 5.472820377276179 3.939086575993852
  endloop
endfacet
facet normal -0.613853 -0.769748 -0.175135
  outer loop
    vertex -6.306782075316895 -3.037186173822987 0
    vertex -1.557646537694129 -6.824495385272781 0
    vertex -4.364428613011072 -5.472820377276259 3.897010617212693
  endloop
endfacet
facet normal -0.613723 0.769584 0.176309
  outer loop
    vertex -6.306782075316961 3.037186173822852 60
    vertex -1.55764653769424 6.824495385272756 60
    vertex -4.364428613011175 5.472820377276176 56.12974877435123
  endloop
endfacet
facet normal 0.510192 0.8547 -0.0958792
  outer loop
    vertex 0.9473934774126233 6.935592663857648 54.85693428662501
    vertex 4.364428613011122 5.472820377276219 60
    vertex 5.553699776994748 4.26103494318088 55.52607859722027
  endloop
endfacet
facet normal 0.548645 -0.83226 -0.0795795
  outer loop
    vertex 4.364428613011173 -5.472820377276179 60
    vertex 1.55764653769426 -6.824495385272751 54.78531415401866
    vertex 5.553699776994989 -4.261034943180565 55.52607859722063
  endloop
endfacet
facet normal -0.178364 -0.960774 0.212369
  outer loop
    vertex 1.55764653769426 -6.824495385272751 54.78531415401866
    vertex -4.364428613011072 -5.472820377276259 55.92658947524426
    vertex -2.245981095903761 -6.629899615894869 52.47110456690559
  endloop
endfacet
facet normal 0.94073 0.335956 -0.0464869
  outer loop
    vertex 7 -1.714505518806294e-15 53.99999999999994
    vertex 5.149245739718439 4.74186337972653 50.81626544240113
    vertex 5.553699776994748 4.26103494318088 55.52607859722027
  endloop
endfacet
facet normal 0.94073 -0.335956 -0.0464869
  outer loop
    vertex 5.149245739718184 -4.741863379726807 50.81626544240182
    vertex 7 -1.714505518806294e-15 53.99999999999994
    vertex 5.553699776994989 -4.261034943180565 55.52607859722063
  endloop
endfacet
facet normal 0.940919 0.333888 0.0564759
  outer loop
    vertex 5.116500045937608 4.777177752598333 9.137222283606846
    vertex 7 -1.714505518806294e-15 6.000000000000001
    vertex 5.612917037292285 4.182721880841947 4.381094627535894
  endloop
endfacet
facet normal 0.937394 -0.340023 0.075346
  outer loop
    vertex 7 -1.714505518806294e-15 6.000000000000001
    vertex 4.95916852095695 -4.940308449960352 9.095652124318562
    vertex 5.612917037292297 -4.182721880841932 4.381094627535902
  endloop
endfacet
facet normal 0.496609 0.866763 0.0458423
  outer loop
    vertex 5.149245739718439 4.74186337972653 50.81626544240113
    vertex 0.9473934774126233 6.935592663857648 54.85693428662501
    vertex 5.553699776994748 4.26103494318088 55.52607859722027
  endloop
endfacet
facet normal 0.534201 -0.844395 0.0403305
  outer loop
    vertex 1.55764653769426 -6.824495385272751 54.78531415401866
    vertex 5.149245739718184 -4.741863379726807 50.81626544240182
    vertex 5.553699776994989 -4.261034943180565 55.52607859722063
  endloop
endfacet
facet normal -0.489338 -0.853796 -0.177711
  outer loop
    vertex -5.326859560344454 -4.54142788386724 50.92063011355573
    vertex -0.2428641651053905 -6.995785659760286 48.71325395345838
    vertex -2.245981095903761 -6.629899615894869 52.47110456690559
  endloop
endfacet
facet normal -0.542389 -0.838533 -0.0517365
  outer loop
    vertex -4.364428613011072 -5.472820377276259 55.92658947524426
    vertex -5.326859560344454 -4.54142788386724 50.92063011355573
    vertex -2.245981095903761 -6.629899615894869 52.47110456690559
  endloop
endfacet
facet normal 0 0 -1
  outer loop
    vertex -6.306782075316895 -3.037186173822987 0
    vertex -6.306782075316961 3.037186173822852 0
    vertex 1.002372787947284e-14 -1.712915523707384e-14 0
  endloop
endfacet
facet normal 0 0 -1
  outer loop
    vertex -6.306782075316961 3.037186173822852 0
    vertex -1.55764653769424 6.824495385272756 0
    vertex 1.002372787947284e-14 -1.712915523707384e-14 0
  endloop
endfacet
facet normal 0 0 -1
  outer loop
    vertex -1.557646537694129 -6.824495385272781 0
    vertex -6.306782075316895 -3.037186173822987 0
    vertex 1.002372787947284e-14 -1.712915523707384e-14 0
  endloop
endfacet
facet normal 0 0 -1
  outer loop
    vertex -1.55764653769424 6.824495385272756 0
    vertex 4.364428613011122 5.472820377276219 0
    vertex 1.002372787947284e-14 -1.712915523707384e-14 0
  endloop
endfacet
facet normal 0 -0 -1
  outer loop
    vertex 4.364428613011122 5.472820377276219 0
    vertex 7 -1.71450551880629e-15 0
    vertex 1.002372787947284e-14 -1.712915523707384e-14 0
  endloop
endfacet
facet normal -0 0 -1
  outer loop
    vertex 4.364428613011173 -5.472820377276179 0
    vertex -1.557646537694129 -6.824495385272781 0
    vertex 1.002372787947284e-14 -1.712915523707384e-14 0
  endloop
endfacet
facet normal 0 0 -1
  outer loop
    vertex 7 -1.71450551880629e-15 0
    vertex 4.364428613011173 -5.472820377276179 0
    vertex 1.002372787947284e-14 -1.712915523707384e-14 0
  endloop
endfacet
facet normal 0 -0 1
  outer loop
    vertex -6.306782075316895 -3.037186173822987 60
    vertex 1.002372787947284e-14 -1.712915523707384e-14 60
    vertex -6.306782075316961 3.037186173822852 60
  endloop
endfacet
facet normal -0 0 1
  outer loop
    vertex -6.306782075316961 3.037186173822852 60
    vertex 1.002372787947284e-14 -1.712915523707384e-14 60
    vertex -1.55764653769424 6.824495385272756 60
  endloop
endfacet
facet normal 0 -0 1
  outer loop
    vertex -1.557646537694129 -6.824495385272781 60
    vertex 1.002372787947284e-14 -1.712915523707384e-14 60
    vertex -6.306782075316895 -3.037186173822987 60
  endloop
endfacet
facet normal 0 0 1
  outer loop
    vertex -1.55764653769424 6.824495385272756 60
    vertex 1.002372787947284e-14 -1.712915523707384e-14 60
    vertex 4.364428613011122 5.472820377276219 60
  endloop
endfacet
facet normal 0 0 1
  outer loop
    vertex 4.364428613011122 5.472820377276219 60
    vertex 1.002372787947284e-14 -1.712915523707384e-14 60
    vertex 7 -1.71450551880629e-15 60
  endloop
endfacet
facet normal 0 0 1
  outer loop
    vertex 4.364428613011173 -5.472820377276179 60
    vertex 1.002372787947284e-14 -1.712915523707384e-14 60
    vertex -1.557646537694129 -6.824495385272781 60
  endloop
endfacet
facet normal 0 0 1
  outer loop
    vertex 7 -1.71450551880629e-15 60
    vertex 1.002372787947284e-14 -1.712915523707384e-14 60
    vertex 4.364428613011173 -5.472820377276179 60
  endloop
endfacet
endsolid Created by Gmsh
